<?xml version="1.0" encoding="UTF-8"?><svg id="Layer_2" xmlns="http://www.w3.org/2000/svg" viewBox="0 0 97.59 81.42"><defs><style>.cls-1,.cls-2{fill:#bf961b;}.cls-2,.cls-3{stroke:#767777;stroke-width:4px;}.cls-2,.cls-3,.cls-4{stroke-linecap:round;stroke-linejoin:round;}.cls-3,.cls-4{fill:none;}.cls-4{stroke:#fff;stroke-width:3px;}</style></defs><g id="footer"><g><path class="cls-2" d="M85.93,27.36H6.92c-2.72,0-4.92-2.2-4.92-4.92h0c0-2.72,2.2-4.92,4.92-4.92H85.93c2.72,0,4.92,2.2,4.92,4.92h0c0,2.72-2.2,4.92-4.92,4.92Z"/><path class="cls-3" d="M55.87,72.16H19.82c-2.65,0-4.88-2.06-5.16-4.77L10.58,27.36H82.88l-.97,9.49"/><line class="cls-3" x1="20.81" y1="15.93" x2="26.3" y2="2"/><line class="cls-3" x1="72.04" y1="15.93" x2="66.55" y2="2"/><line class="cls-3" x1="31.21" y1="69.34" x2="29.3" y2="29.3"/><line class="cls-3" x1="63.31" y1="39.43" x2="63.8" y2="29.3"/><line class="cls-3" x1="14.81" y1="48.69" x2="54.65" y2="48.69"/><line class="cls-3" x1="46.73" y1="27.36" x2="46.73" y2="72.16"/><circle class="cls-3" cx="77.12" cy="60.95" r="18.47" transform="translate(.08 122) rotate(-76.72)"/><circle class="cls-1" cx="77.12" cy="60.95" r="12.78" transform="translate(.08 122) rotate(-76.72)"/><polyline class="cls-4" points="70.4 62.83 76.15 66.62 83.96 57.1"/></g></g></svg>