<svg xmlns="http://www.w3.org/2000/svg" viewBox="0 0 39.64 72"><defs><style>.cls-1{fill:#fff;}</style></defs><g id="Layer_2" data-name="Layer 2"><g id="design"><path class="cls-1" d="M39.64,35.76v31c0,3.23-1.94,5.32-5.08,5.19-6.64-.26-13.28-.81-19.92-.95-2.89-.06-5.79.81-8.7.93-4,.17-5.93-1.89-5.93-6Q0,43.61,0,21.3c0-5.47,0-11,0-16.43C0,.85.87,0,4.83,0H35.62c3.17,0,4,.83,4,3.93ZM36.48,6.39H15.79V44.74H36.48ZM3.78,6.31V44.73h8.58V6.31Zm32.67,50a67.12,67.12,0,0,1-32.66.19v8.1H36.45Zm0-8.68a94.14,94.14,0,0,1-32.72.06v6H36.47Zm0-43.67V3.38H3.73v.55Zm0,63.73v-.5H3.73v.5Z"/><path class="cls-1" d="M11.9,25.77V29H4.32V25.77Z"/></g></g></svg>