<svg xmlns="http://www.w3.org/2000/svg" viewBox="0 0 55.5 155.63"><defs><style>.cls-1{fill:#fff;}</style></defs><title>Asset 2</title><g id="Layer_2" data-name="Layer 2"><g id="Layer_1-2" data-name="Layer 1"><path class="cls-1" d="M53.45,1.39s1.28,1,2,1.69c0,.24-.27.35-.58.35H48.74l2,.49c-.09.26-.33.46-.82.46a18.27,18.27,0,0,1-1.76,2.09h4.21l.77-.9L55,7a1.91,1.91,0,0,1-1,.44V18c0,1.17-.27,1.88-2.29,2.1a1.41,1.41,0,0,0-.49-1,3.92,3.92,0,0,0-1.87-.55v-.35s2.23.18,2.71.18.51-.14.51-.47V7.11H47.75V9.2c0,.46,0,.48.44.48h2.2c.2,0,.33,0,.42-.15a5.45,5.45,0,0,0,.4-1.3h.33l0,1.25c.42.2.46.24.46.47,0,.48-.39.79-1.65.79H48.12c-1.36,0-1.6-.27-1.6-1.59v-2H44.14C43.53,9.75,41.9,11.18,39,12l-.15-.33a5.92,5.92,0,0,0,3.83-4.6H38.31V19.58c0,.18-.57.55-1.16.55H36.9V5.74l1.56.73h3.92a1.25,1.25,0,0,1-.35-.2,6.37,6.37,0,0,0-1.28-2.73l.2-.11H35.56l-.18-.64h9.29V0l2.24.24c0,.31-.26.53-.79.6v2h6.19Zm-6,5.08a25.89,25.89,0,0,0,1-3H41.06c2.8,1,2.64,2.73,1.85,3ZM50,12.41a1.06,1.06,0,0,1-.72.35v4.82a2.09,2.09,0,0,1-1.15.4h-.2V16.72h-5v1c0,.14-.55.44-1.12.44h-.2V11.33L43,12h4.73l.7-.73Zm-2.07.22h-5v3.43h5Z"/><path class="cls-1" d="M43.17,32.94l1.76,1.34a1.6,1.6,0,0,1-.92.44V42a2,2,0,0,1-1.21.48h-.18V40.9H37.94v1.47c0,.14-.6.49-1.17.49h-.24V33.11l1.52.68H42.4Zm-.55,1.51H37.94v5.81h4.68ZM41.5,31.79c0,.13-.59.46-1.21.46h-.22V23.43l1.54.68h7.66l.79-.88,1.78,1.37a1.67,1.67,0,0,1-.92.44v6.62c0,.15-.75.48-1.21.48h-.22V30.56h-8Zm0-1.87h8V24.77h-8Zm13.89,4.36a1.82,1.82,0,0,1-1,.44v7.41c0,.16-.75.49-1.19.49H53V40.9H48.19v1.54c0,.16-.57.49-1.17.49h-.24V33.11l1.52.68h4.51l.79-.85ZM53,34.45H48.19v5.81H53Z"/><path class="cls-1" d="M36.18,53.9a2.1,2.1,0,0,0,1.43.86,3.75,3.75,0,0,0,1.89-.66c2.07-1.06,5.39-3,8.6-3,3.94,0,6,2.47,6,5.13s-1.7,4.64-4,5.74a19,19,0,0,1-8.4,1.23l-.07-.59A19.31,19.31,0,0,0,49,61.07c2.42-1.14,3.54-2.75,3.54-5.06s-1.67-4-4.42-4S42.51,54,40.91,55s-2.16,1.63-2.77,1.63a2.74,2.74,0,0,1-1.92-1.3,3.36,3.36,0,0,1-.37-1.21ZM52,50.56a9.68,9.68,0,0,0-2.11-1.83l.26-.37a8.63,8.63,0,0,1,2.53,1.23,1.84,1.84,0,0,1,.86,1.27c0,.38-.13.62-.44.64S52.5,51,52,50.56m1.78-1.63a9.31,9.31,0,0,0-2.11-1.67l.22-.4A9.67,9.67,0,0,1,54.55,48a1.81,1.81,0,0,1,.88,1.3.52.52,0,0,1-.53.57c-.31,0-.57-.44-1.08-.94"/><path class="cls-1" d="M45.64,70.09l.26-.42a4,4,0,0,1,1.32.47c.79.41,1.59,1.32,1.59,1.87s-.38.61-1.13,1.18c-1.45,1.17-4.29,3.77-5.17,4.67-.63.64-.79.88-.79,1.12s.27.57.75.92A34.15,34.15,0,0,1,48.12,85a4.28,4.28,0,0,1,1.06,2.24c0,.58-.29,1-.86,1a.93.93,0,0,1-.77-.55c-.24-.42-.46-1-1-1.87a26.37,26.37,0,0,0-5.19-5.28,1.91,1.91,0,0,1-.82-1.41A1.74,1.74,0,0,1,41.06,78c1.08-1.3,4.27-4.4,5.26-5.59.37-.44.51-.64.51-.9s-.31-.79-1.19-1.39"/><path class="cls-1" d="M40.67,92.55l.28-.28a3.56,3.56,0,0,1,1.06.48,3.32,3.32,0,0,1,1.45,2A4.31,4.31,0,0,1,43.15,96a13.31,13.31,0,0,0-.48,2.16c-.07.44.09.46.33.06,1-1.82,2.51-3.08,3.94-3.08,2.55,0,3.76,2.73,3.76,6.6,0,4.47-2,8.1-7.81,9.6l-.22-.49c5.23-2.11,6.49-5.41,6.49-9.26,0-3.52-1-5.59-2.47-5.59a4.08,4.08,0,0,0-3.1,2.4,8.33,8.33,0,0,0-1.14,4.13c0,.86.15,1.48.15,2.2a.65.65,0,0,1-.64.71.81.81,0,0,1-.77-.57,5.8,5.8,0,0,1-.33-2c0-2.31,1-6.46,1-7.63a3.51,3.51,0,0,0-1.23-2.71"/><path class="cls-1" d="M35.65,124.54l.35-.3a2.68,2.68,0,0,0,1.39.79,1.86,1.86,0,0,0,1-.57c1-.95,2.78-2.95,3.59-3.86a2,2,0,0,1,1.45-.74,2.44,2.44,0,0,1,1.83.85c2.35,2.25,4.53,5.55,8.82,7.88a1.5,1.5,0,0,1,.88,1.34.66.66,0,0,1-.7.73c-.84,0-2.69-1.36-4.51-3.17s-3.55-4.16-5.22-5.94A1.57,1.57,0,0,0,43.5,121c-.26,0-.52.18-.85.55-.77.88-2.31,3-3.13,4-.53.7-.86,1.17-1.45,1.17a3,3,0,0,1-1.92-1.1,2.86,2.86,0,0,1-.5-1.13"/><path class="cls-1" d="M44.6,155.12c5.31-.94,7.84-3.65,7.84-7.59A6.14,6.14,0,0,0,46,141.24c-.24,0-.5,0-.77,0a4,4,0,0,1,.95,2.31,10.78,10.78,0,0,1-.66,3.5c-.9,2.58-3.41,6.78-5.63,6.78-1.46,0-2.95-2.31-2.95-5a8.25,8.25,0,0,1,2.88-6.06,9.26,9.26,0,0,1,6.29-2.31c4.47,0,7.9,2.93,7.9,7.4,0,3.61-2.29,7.24-9.33,7.72Zm-.17-13.7a8.18,8.18,0,0,0-4,2.15,6.88,6.88,0,0,0-2.22,5c0,2.09.94,3.63,1.8,3.63,1.46,0,3.41-3.36,4.29-5.41A9.85,9.85,0,0,0,45,143.4a3.65,3.65,0,0,0-.61-2"/><path class="cls-1" d="M4,11.88c0,2.75.57,4.89,5.52,4.89A23,23,0,0,0,15.34,16c.52,0,1.18.31,1.18.77s-.22.62-.88.86a20.49,20.49,0,0,1-5.89.71c-5.53,0-7.13-2.6-6.34-6.39Zm2.8-4.16C7.83,7,9.18,6.16,10,5.63c.2-.15.17-.22-.11-.22-2.51,0-4.09-.15-5.64-1.91l.33-.4A6.74,6.74,0,0,0,8.82,4.29a23.22,23.22,0,0,0,3.92-.46c.79,0,1.94.44,1.94.92s-.22.58-.75.68A11.91,11.91,0,0,0,11.6,6C10.52,6.4,8.54,7.39,7,8.14Z"/><path class="cls-1" d="M7.13,28.78a15.5,15.5,0,0,0,2.71-1.13,1.75,1.75,0,0,1,.72-.28c.4,0,1,.22,1,.61s-.26.64-1.1,1a24.5,24.5,0,0,1-3.7,1.23c-.3,1-.68,2.18-1.05,3.22a55.31,55.31,0,0,1-3.3,7.92c-.31.48-.53.7-1,.7S.75,41.6.75,41.1s.22-.68.57-1.28A30.49,30.49,0,0,0,4.64,33c.29-.77.55-1.67.82-2.55A16.24,16.24,0,0,1,3,30.71a3,3,0,0,1-3-2.13l.35-.27A3.87,3.87,0,0,0,3,29.52a11.84,11.84,0,0,0,2.8-.35,21.78,21.78,0,0,0,.55-2.77c0-.51-.07-.68-.47-.88a8,8,0,0,0-1.34-.37l0-.51a4.27,4.27,0,0,1,1.37-.15c.79,0,2.16.57,2.18,1.05a9.62,9.62,0,0,1-.55,1.78ZM8.36,36.7a6.12,6.12,0,0,0,.73,2c.77,1.17,2.07,1.68,3.91,1.68A18.89,18.89,0,0,0,16.46,40c.53,0,1.1.24,1.1.75s-.55.68-1.19.83a16.87,16.87,0,0,1-2.9.27c-2.53,0-4.51-.77-5.17-2.69a6.43,6.43,0,0,1-.47-2.4Zm1.21-5a10.62,10.62,0,0,1,3.92-.83,6.69,6.69,0,0,1,3,.55c.48.26.77.59.77.94s-.38.53-.91.57a3.5,3.5,0,0,0-1.29.33c-.66.25-1.7.75-2.42,1.1L12.3,34a22.75,22.75,0,0,0,2.27-1.58c.17-.14.09-.25-.09-.31a6.36,6.36,0,0,0-1.89-.24,12.94,12.94,0,0,0-2.89.33Zm4.51-6a7.65,7.65,0,0,1,2.47,1.45,1.73,1.73,0,0,1,.77,1.3.54.54,0,0,1-.6.55c-.33,0-.57-.49-1-1a10,10,0,0,0-1.93-1.92Zm1.85-1.32a8.83,8.83,0,0,1,2.51,1.23A1.86,1.86,0,0,1,19.21,27a.51.51,0,0,1-.55.57c-.33,0-.55-.52-1-1a9.46,9.46,0,0,0-1.94-1.76Z"/><path class="cls-1" d="M6.76,54.58a11.76,11.76,0,0,1,6.33-2.13,5.09,5.09,0,0,1,5.33,4.86c0,3.19-2.29,5.83-8,7.22L10.21,64c5.39-2,6.6-4.68,6.6-7.17a3.76,3.76,0,0,0-4-3.72,10,10,0,0,0-6.16,2.53,47.75,47.75,0,0,0,.18,6.12c0,.57.11,1,.11,1.47C7,64,6.69,65,6.07,65c-.41,0-.63-.24-.72-.72A7.8,7.8,0,0,0,5,62.9a20.11,20.11,0,0,0-1.56-2.66c-.51.7-1,1.34-1.37,1.91-.26.35-.48.66-.79.66A.7.7,0,0,1,.62,62a1.47,1.47,0,0,1,.5-1.1,56.68,56.68,0,0,0,4.69-6.12c0-.57.11-1.12.18-1.69-.73.4-1.46.79-2,1.12S3.3,55,3,55a2.42,2.42,0,0,1-1.76-1.52,3.1,3.1,0,0,1-.09-.88l.37-.15c.33.63.64,1,1,1a16.92,16.92,0,0,0,3.65-1.47c.18-1.43.35-2.64.35-3.3,0-.46-.13-.57-.53-.7a5.37,5.37,0,0,0-1.16-.33l0-.42a4.37,4.37,0,0,1,1.34-.24c.92,0,2,.94,2,1.56,0,.44-.26.66-.46,1.52-.09.33-.24.92-.42,1.65.37.22.86.66.86.94s-.24.44-.51.77a10.07,10.07,0,0,0-.81,1ZM5.68,56.85c-.57.92-1.28,1.94-2,2.9.62.8,1.36,1.74,1.69,2.12.18.22.27.19.27-.16,0-1,0-3,0-4.86"/><path class="cls-1" d="M4.67,69.67,5,69.39A3.56,3.56,0,0,1,6,69.87a3.32,3.32,0,0,1,1.45,2,4.31,4.31,0,0,1-.31,1.28,13.31,13.31,0,0,0-.48,2.16c-.07.44.09.46.33.06,1-1.82,2.51-3.08,3.94-3.08,2.55,0,3.76,2.73,3.76,6.6,0,4.47-2,8.1-7.81,9.6L6.67,88c5.23-2.11,6.49-5.41,6.49-9.26,0-3.52-1-5.59-2.47-5.59a4.08,4.08,0,0,0-3.1,2.4,8.33,8.33,0,0,0-1.14,4.13c0,.86.15,1.48.15,2.2a.65.65,0,0,1-.64.71A.81.81,0,0,1,5.19,82a5.8,5.8,0,0,1-.33-2c0-2.31,1-6.46,1-7.63a3.51,3.51,0,0,0-1.23-2.71"/></g></g></svg>