<svg xmlns="http://www.w3.org/2000/svg" viewBox="0 0 20.51 202.07"><defs><style>.cls-1{fill:#fff;}</style></defs><title>Asset 4</title><g id="Layer_2" data-name="Layer 2"><g id="Layer_1-2" data-name="Layer 1"><path class="cls-1" d="M3.76,15.34a4.28,4.28,0,0,1-1.89,4.71c-.68.37-1.5.37-1.74-.14s.13-.9.62-1.16a4.32,4.32,0,0,0,2.66-3.43ZM4.86,14v.7a1.33,1.33,0,0,1-1.16.48H3.45V6.47A18.09,18.09,0,0,1,.35,8.65L.09,8.41A21.23,21.23,0,0,0,6.54,0L8.87.66C8.78.9,8.6,1,8,1a14,14,0,0,1-.95,1.47h4.76l.92-.92L14.41,3a1.92,1.92,0,0,1-.88.2,25.63,25.63,0,0,1-2.79,2.57h5l.79-.9,1.79,1.38a1.44,1.44,0,0,1-.93.42V14.5c0,.16-.75.49-1.21.49h-.22V14ZM6.62,3.08A23,23,0,0,1,4.47,5.52l.68.29h5a22.8,22.8,0,0,0,1.62-2.73ZM4.86,9.53H9.64V6.45H4.86Zm0,3.85H9.64V10.19H4.86Zm1.89,2c3.68,2.64,2.1,5.65.75,4.29a9.26,9.26,0,0,0-1-4.18Zm4.19,0c4.66,2.15,3.43,5.41,1.91,4.24a10.06,10.06,0,0,0-2.18-4.11Zm.11-5.9h4.88V6.45H11.05Zm4.88.66H11.05v3.19h4.88Zm-.66,5.08c6.18,2.16,5.26,5.94,3.52,4.84a12.49,12.49,0,0,0-3.74-4.64Z"/><path class="cls-1" d="M9.22,40.92c5.3-.94,7.83-3.65,7.83-7.59A6.14,6.14,0,0,0,10.63,27c-.24,0-.51,0-.77,0a4,4,0,0,1,.94,2.31,10.78,10.78,0,0,1-.66,3.5c-.9,2.58-3.41,6.78-5.63,6.78-1.45,0-2.95-2.31-2.95-5a8.28,8.28,0,0,1,2.88-6.05,9.29,9.29,0,0,1,6.3-2.31c4.46,0,7.9,2.93,7.9,7.4,0,3.61-2.29,7.24-9.33,7.72ZM9,27.22a8.19,8.19,0,0,0-4,2.15,6.89,6.89,0,0,0-2.23,4.95c0,2.09,1,3.63,1.81,3.63C6.05,38,8,34.59,8.89,32.54a9.85,9.85,0,0,0,.77-3.34,3.57,3.57,0,0,0-.62-2"/><path class="cls-1" d="M20.24,52.14A1.61,1.61,0,0,0,19,53.31,20,20,0,0,1,10.58,47a25,25,0,0,1-5.87,4.76l1.39.66H9.37V49.72l2.14.22c0,.29-.22.48-.68.57v1.92h3.25l.75-.82,1.65,1.26a1.2,1.2,0,0,1-.77.37V58.9a1.8,1.8,0,0,1-1.21.52h-.22v-.66H10.19a9.19,9.19,0,0,0,2.7,3.08,23.59,23.59,0,0,0,3.75-3l1.8,1.23c-.15.2-.33.29-.79.14a28.06,28.06,0,0,1-4.27,2,17.7,17.7,0,0,0,6.75,2.36l0,.26a1.57,1.57,0,0,0-1.25,1.28c-4.47-1.14-7.57-3.32-9.16-7.31H6v4.78l5.58-.93.07.38c-2.05.64-4.93,1.52-9,2.57a.75.75,0,0,1-.48.51L1.12,64.24c.79-.09,2-.26,3.46-.48V51.86A31.43,31.43,0,0,1,.29,54l-.18-.3c3.54-1.74,8-5.42,9.15-8l2.6.57c0,.27-.33.38-.9.42,2,2.09,5.72,3.9,9.33,5ZM6,55.22h8.29V53H6Zm8.29.66H6v2.25h8.29Z"/><path class="cls-1" d="M.18,79.53l.35-.31A2.51,2.51,0,0,0,1.94,80a1.82,1.82,0,0,0,1-.6c1-.92,2.77-2.92,3.59-3.82A1.94,1.94,0,0,1,8,74.85a2.38,2.38,0,0,1,1.83.88c2.35,2.22,4.53,5.52,8.82,7.85a1.54,1.54,0,0,1,.88,1.34.65.65,0,0,1-.7.73c-.84,0-2.69-1.34-4.52-3.17s-3.54-4.16-5.21-5.92A1.53,1.53,0,0,0,8,76c-.26,0-.53.18-.86.57-.77.88-2.31,3-3.1,4-.55.7-.88,1.19-1.47,1.19a3.12,3.12,0,0,1-1.92-1.1,3,3,0,0,1-.5-1.15M14.9,76.17a10.1,10.1,0,0,0-2.16-2.12L13,73.7a8.22,8.22,0,0,1,2.66,1.5,1.88,1.88,0,0,1,.88,1.49.51.51,0,0,1-.52.51c-.36,0-.64-.44-1.1-1M17,74.3a9.57,9.57,0,0,0-2.33-2l.26-.35a8.23,8.23,0,0,1,2.69,1.32,2.19,2.19,0,0,1,1,1.54.5.5,0,0,1-.51.55c-.37,0-.62-.42-1.1-1"/><path class="cls-1" d="M18.13,94.49s1.28,1,2,1.67c-.06.25-.24.33-.57.33H9a40.34,40.34,0,0,1-.46,4.05h6.38l.88-.9,1.68,1.41a1.47,1.47,0,0,1-.91.35c-.24,4.62-.83,8.52-1.91,9.51a3.64,3.64,0,0,1-2.62.88,1.12,1.12,0,0,0-.48-1.06,10,10,0,0,0-2.66-.7v-.38c1.18.11,3.3.31,3.85.31a1.09,1.09,0,0,0,.92-.29c.75-.61,1.23-4.24,1.45-8.47H8.36c-.92,4.67-3,8.19-8,10.65l-.2-.28C5.54,107.91,7,103,7.22,96.49H.2L0,95.88H9.28V91.63l2.27.24c0,.31-.26.53-.79.6v3.41H17Z"/><path class="cls-1" d="M5.7,116.8a4,4,0,0,1,1.43-.29c.88,0,2.48.75,2.48,1.3s-.43.73-.68,1.28-.52,1.32-.92,2.26a10.38,10.38,0,0,1,1.78-.19c1.61,0,2.55.9,2.55,3.45a12.94,12.94,0,0,1-2.06,7.24,3.33,3.33,0,0,1-2.62,1.34c-.73,0-.86-.28-1.15-.92-.15-.35-.31-.6-1.49-1.63l.22-.35a7.47,7.47,0,0,0,2.61,1.27,1.83,1.83,0,0,0,1.7-1.12,12.86,12.86,0,0,0,1.52-6.18c0-1.56-.38-2.22-1.54-2.22a9.88,9.88,0,0,0-2,.3c-.6,1.46-1.32,3.11-2,4.54a60,60,0,0,1-3.19,5.87c-.33.53-.57.66-.9.66a.73.73,0,0,1-.66-.81,1.58,1.58,0,0,1,.35-1,34,34,0,0,0,3.37-5.33c.53-1,1.1-2.29,1.61-3.52-.82.27-1.52.53-2,.71a5.43,5.43,0,0,1-1.76.59c-.55,0-1.39-.84-1.54-1.52a3.3,3.3,0,0,1,0-1.25l.42-.09c.26.59.42,1.28,1,1.28a36,36,0,0,0,4.21-.86,16.7,16.7,0,0,0,1.12-3.46.58.58,0,0,0-.33-.59,8,8,0,0,0-1.65-.33ZM14,121.18A5.57,5.57,0,0,1,17.69,123a5.76,5.76,0,0,1,1.36,3.94c0,.9-.28,1.63-.94,1.63s-.57-.6-1.21-.73a12.71,12.71,0,0,0-2.55.09l-.11-.51c.79-.17,2.13-.46,2.72-.64s.53-.39.51-.94a4.76,4.76,0,0,0-.88-2.4,4.14,4.14,0,0,0-2.84-1.72Zm.93-3.74a7.6,7.6,0,0,1,2.44,1.45,1.73,1.73,0,0,1,.77,1.28.52.52,0,0,1-.53.57c-.35,0-.59-.46-1-1a9.32,9.32,0,0,0-2-1.9Zm1.93-1.37a8.15,8.15,0,0,1,2.47,1.24,1.77,1.77,0,0,1,.81,1.34.5.5,0,0,1-.53.57c-.35,0-.55-.53-1-1a9.81,9.81,0,0,0-2-1.76Z"/><path class="cls-1" d="M16,150.28c-.18.18-.44.25-1,.27a13.47,13.47,0,0,1-3.7,3.59A27.3,27.3,0,0,0,20.51,156l-.05.27a1.6,1.6,0,0,0-1.21,1.38c-4-.5-6.82-1.38-9-2.81A27.44,27.44,0,0,1,.13,157.59l-.13-.4a26.14,26.14,0,0,0,9.26-3.1,13.36,13.36,0,0,1-2.66-2.88,18.55,18.55,0,0,1-5.28,3l-.22-.31a17.85,17.85,0,0,0,7.09-6.53l2.22.7c-.09.24-.35.37-1,.35a14.24,14.24,0,0,1-1.12,1.28h5.12l1.06-.88Zm-15.8-9.5-.17-.64H9.33v-2.71l2.24.25c0,.3-.26.52-.77.59v1.87H17l1.1-1.36s1.26,1,2,1.65c-.06.24-.26.35-.57.35H13.42V146c0,1.1-.28,1.83-2.11,2a1.39,1.39,0,0,0-.4-.95,3.58,3.58,0,0,0-1.69-.48v-.33s1.94.13,2.38.13.44-.13.44-.4v-5.19H9.13c-.24,3.56-1.05,6.42-7.35,8.4l-.28-.37c5.45-2.11,6-4.84,6.14-8Zm5.86,2.07a.69.69,0,0,1-.84.2,15.46,15.46,0,0,1-4.6,3.21L.4,146a14.67,14.67,0,0,0,3.94-4.16Zm1.54,7.48c-.22.2-.44.39-.69.59a11.62,11.62,0,0,0,3.19,2.6,11.37,11.37,0,0,0,3.15-3.19Zm6.77-8.25c6.23,1.52,5.64,5.23,3.88,4.31-.58-1.43-2.56-3.17-4.08-4.11Z"/><path class="cls-1" d="M7.37,169.18a11.82,11.82,0,0,1,6.34-2.13A5.08,5.08,0,0,1,19,171.91c0,3.19-2.29,5.83-8,7.22l-.23-.49c5.4-2,6.61-4.68,6.61-7.17a3.76,3.76,0,0,0-4-3.72,10.07,10.07,0,0,0-6.17,2.53,47.75,47.75,0,0,0,.18,6.12c0,.57.11,1,.11,1.47,0,.73-.29,1.76-.9,1.76-.42,0-.64-.24-.73-.72a8.67,8.67,0,0,0-.39-1.41A20.38,20.38,0,0,0,4,174.84c-.5.7-.94,1.34-1.36,1.91-.26.35-.48.66-.79.66a.71.71,0,0,1-.62-.77,1.45,1.45,0,0,1,.51-1.1,56.84,56.84,0,0,0,4.68-6.12c0-.57.11-1.12.18-1.69-.73.4-1.45.79-2,1.12s-.66.73-1,.73a2.44,2.44,0,0,1-1.76-1.52,3.47,3.47,0,0,1-.08-.88l.37-.15c.33.63.64,1,1,1a16.72,16.72,0,0,0,3.65-1.47c.18-1.43.36-2.64.36-3.3,0-.46-.14-.57-.53-.7a5.49,5.49,0,0,0-1.17-.33l0-.42a4.48,4.48,0,0,1,1.34-.24c.93,0,2,.94,2,1.56,0,.44-.26.66-.46,1.52-.08.33-.24.92-.42,1.65.38.22.86.66.86.94s-.24.44-.5.77a10,10,0,0,0-.82,1Zm-1.08,2.27c-.57.92-1.27,1.94-2,2.9.62.8,1.37,1.74,1.7,2.12.17.22.26.19.26-.16,0-1,0-2.95,0-4.86"/><path class="cls-1" d="M5.76,185.57c.29.6.58,1.28,1.15,1.28a27.38,27.38,0,0,0,4.55-1c.49-.14.53-.36.84-.36.66,0,1.87.93,1.87,1.52,0,.42-.51.44-1.28,1.08-1.1.95-3.94,3.7-4.93,4.75-.15.16-.06.33.14.24a10.27,10.27,0,0,1,3.69-.77c2.8,0,5.22,1.85,5.15,4.84-.06,2.71-2.46,4.93-6.55,4.93-2.43,0-4.1-1-4.1-2.53a2.22,2.22,0,0,1,2.44-2,3.52,3.52,0,0,1,3.53,3.1,4.05,4.05,0,0,0,3.25-3.81,3.69,3.69,0,0,0-4-3.74c-3.11,0-5.26,1.94-7.11,4.27-.31.4-.48.53-.81.53S3,197.52,3,197a1.91,1.91,0,0,1,.71-1.21c3.36-3.46,7.26-7.2,8.16-8.67.22-.29.09-.4-.17-.33a29.26,29.26,0,0,0-3.46,1.16c-.42.18-.73.51-1.08.51a2.24,2.24,0,0,1-1.8-1.56,3.18,3.18,0,0,1,0-1.23ZM11,200.84c-.29-1.67-1.32-2.53-2.53-2.53-.8,0-1.37.44-1.37,1.15s.93,1.43,3,1.43c.33,0,.61,0,.9,0"/></g></g></svg>