<svg xmlns="http://www.w3.org/2000/svg" viewBox="0 0 45.93 26.35"><defs><style>.cls-1{fill:#b3b3b3;}</style></defs><g id="Layer_2" data-name="Layer 2"><g id="designのコピー_3" data-name="designのコピー 3"><path class="cls-1" d="M45.24,10.75C42.9,6.94,36.75,0,23,0S3.06,6.89.7,10.7a4.74,4.74,0,0,0,0,5C3.06,19.47,9.22,26.35,23,26.35S42.9,19.41,45.24,15.61A4.62,4.62,0,0,0,45.24,10.75ZM33.06,14.52A10.19,10.19,0,1,1,21.62,3.08,10.22,10.22,0,0,1,33.06,14.52Z"/><path class="cls-1" d="M25.28,11.9a1.74,1.74,0,0,1-1.19-1.18,1.78,1.78,0,0,1,1-2.17A5,5,0,0,0,23,8.09a5.09,5.09,0,0,0-5.09,5.16,5.16,5.16,0,0,0,5,5,5.09,5.09,0,0,0,4.6-7.43A1.8,1.8,0,0,1,25.28,11.9Z"/></g></g></svg>