<svg xmlns="http://www.w3.org/2000/svg" viewBox="0 0 40 40"><defs><style>.cls-1{fill:#fff;}</style></defs><g id="Layer_2" data-name="Layer 2"><g id="Design"><path class="cls-1" d="M28.5,0h-17A11.4,11.4,0,0,0,0,11.3V28.7A11.4,11.4,0,0,0,11.5,40h17A11.4,11.4,0,0,0,40,28.7V11.3A11.4,11.4,0,0,0,28.5,0ZM4.08,11.3A7.36,7.36,0,0,1,11.5,4h17a7.36,7.36,0,0,1,7.42,7.29V28.7A7.36,7.36,0,0,1,28.5,36h-17A7.36,7.36,0,0,1,4.08,28.7Z"/><path class="cls-1" d="M20,30.3A10.4,10.4,0,0,0,30.48,20a10.48,10.48,0,0,0-21,0A10.4,10.4,0,0,0,20,30.3Zm0-17.39A7.09,7.09,0,1,1,12.79,20,7.16,7.16,0,0,1,20,12.91Z"/><ellipse class="cls-1" cx="30.78" cy="9.4" rx="2.35" ry="2.31"/></g></g></svg>