<svg xmlns="http://www.w3.org/2000/svg" viewBox="0 0 18.64 154.55"><defs><style>.cls-1{fill:#fff;}</style></defs><title>Asset 2</title><g id="Layer_2" data-name="Layer 2"><g id="Layer_1-2" data-name="Layer 1"><polygon class="cls-1" points="14.81 0 14.81 1.03 8.25 16.46 6.49 16.46 6.36 16.33 13.58 1.61 3.83 1.61 3.83 0 14.81 0"/><path class="cls-1" d="M.31,28.76a2.24,2.24,0,0,0,1.45.83A3.7,3.7,0,0,0,3.63,29C5.7,27.9,9,26,12.23,26c4,0,6,2.47,6,5.15s-1.71,4.62-4,5.72a18.89,18.89,0,0,1-8.42,1.23l-.07-.57a19.43,19.43,0,0,0,7.39-1.6c2.4-1.15,3.55-2.73,3.55-5s-1.68-4-4.45-4-5.54,1.93-7.15,2.95-2.15,1.6-2.77,1.6a2.75,2.75,0,0,1-1.94-1.3A4.28,4.28,0,0,1,0,29Z"/><path class="cls-1" d="M8.63,61.8c5.3-.95,7.83-3.65,7.83-7.59A6.13,6.13,0,0,0,10,47.92c-.24,0-.5,0-.77,0a3.93,3.93,0,0,1,1,2.31,10.78,10.78,0,0,1-.66,3.5c-.9,2.57-3.41,6.78-5.63,6.78-1.45,0-2.95-2.31-2.95-5a8.25,8.25,0,0,1,2.88-6,9.26,9.26,0,0,1,6.29-2.31c4.47,0,7.9,2.93,7.9,7.39,0,3.61-2.28,7.24-9.33,7.73ZM8.45,48.09a8.19,8.19,0,0,0-4,2.16,6.92,6.92,0,0,0-2.22,5c0,2.09.95,3.63,1.81,3.63,1.45,0,3.41-3.37,4.29-5.41a10.2,10.2,0,0,0,.77-3.35,3.68,3.68,0,0,0-.62-2"/><path class="cls-1" d="M12.08,69.08a4.44,4.44,0,0,1,1.72.35c.75.38,1.54,1.17,1.54,1.78,0,.4-.51.44-.91,1.15S12.81,75.2,11.51,77c1.6,1.19,3.59,3.13,3.61,4.27a.78.78,0,0,1-.77.88c-.88,0-1-1.43-3.79-3.91A24.74,24.74,0,0,1,.84,85.38l-.29-.46a30.94,30.94,0,0,0,9-7.54,35.4,35.4,0,0,0-5-3.46l.29-.48a27.34,27.34,0,0,1,5.56,2.79c1.45-2.07,2.86-4.69,2.86-5.43,0-.55-.48-.88-1.25-1.35Z"/><path class="cls-1" d="M3.92,93.55l0-.42a4.74,4.74,0,0,1,1.28-.24c.79,0,2.14.77,2.14,1.34,0,.39-.27.61-.33,1.41s0,5.65,0,6.55-.3,1.1-.7,1.1-.86-.7-.86-1.49c0-.6.18-1.43.22-3.17,0-1,0-3.13-.13-3.94,0-.48-.07-.66-.42-.81a4.38,4.38,0,0,0-1.14-.33M6.4,109.17l-.28-.46c4.2-2.23,6.22-5.11,6.49-9.53a43.47,43.47,0,0,0,.06-5.3.88.88,0,0,0-.48-.89,4.53,4.53,0,0,0-1.28-.3l0-.4a3.92,3.92,0,0,1,1.48-.46c.85,0,2.26.86,2.26,1.32s-.35.59-.37,1.3c-.07,1.25-.16,3.45-.22,4.79-.24,5-2.75,8.12-7.64,9.93"/><path class="cls-1" d="M6.6,118.47l.24-.22a5.56,5.56,0,0,1,1.52,1.06,3.08,3.08,0,0,1,1.34,2.2.67.67,0,0,1-.72.75c-.66,0-.73-.82-1.26-2a8.3,8.3,0,0,0-1.12-1.83m1.63,10.32L8,128.42c5.54-2.84,8.8-8.32,8.8-10,0-.33-.33-.6-1.15-.93l.12-.3a4.26,4.26,0,0,1,1,0c.81.11,1.87,1,1.87,1.58,0,.37-.42.53-.64,1a17.11,17.11,0,0,1-9.77,9m2-11.44.26-.2a7,7,0,0,1,1.58,1.08,2.71,2.71,0,0,1,1.17,2,.71.71,0,0,1-.73.77c-.68,0-.68-.89-1.18-1.94a8,8,0,0,0-1.1-1.76"/><path class="cls-1" d="M5.7,137.61a6.27,6.27,0,0,1,1.36-.26c.93,0,2.4.81,2.4,1.34s-.39.53-.46,1.23c-.11,1-.15,2.58-.15,3.79a18.54,18.54,0,0,1,5.3,1.93c.66.44,1.25,1,1.25,1.65a.72.72,0,0,1-.75.77c-.7,0-1-.75-2.28-1.76a15.57,15.57,0,0,0-3.52-1.82c0,1.51,0,5,0,7.26,0,1,0,1.6,0,2,0,.57-.2.83-.71.83-.72,0-1.1-1.16-1.1-1.93,0-.49.2-.86.29-1.7.18-1.6.18-5.1.18-6.73s0-4.09-.14-5.17c-.06-.68-.57-.84-1.69-1Z"/></g></g></svg>