<svg xmlns="http://www.w3.org/2000/svg" viewBox="0 0 20.92 134.27"><defs><style>.cls-1{fill:#fff;}</style></defs><title>Asset 3</title><g id="Layer_2" data-name="Layer 2"><g id="Layer_1-2" data-name="Layer 1"><path class="cls-1" d="M4.56,15.89c1.56,1.78,3.3,2,7.15,2,2.66,0,6.22,0,8.93-.09v.31a1.27,1.27,0,0,0-1.1,1.19H11.73c-4.07,0-5.9-.51-7.48-3a32.48,32.48,0,0,1-2.82,3,.41.41,0,0,1-.22.52l-1-1.76c.74-.35,1.93-1,3-1.71V9.77H.4L.29,9.13H2.9L3.76,8,5.63,9.57a1.83,1.83,0,0,1-1.07.4ZM.86.4c5.24,1.82,4,5.41,2.42,4.2A8.53,8.53,0,0,0,.62.57ZM18.57,11.11s1.15.88,1.87,1.54c-.06.24-.26.35-.57.35H5.77l-.18-.63H9.66V9.75h-3l-.18-.64H9.66v-2l1.94.2c0,.24-.2.4-.55.48V9.11h3.27v-2l1.92.2c0,.24-.18.4-.55.48V9.11h1.14L17.76,8s1,.82,1.71,1.44c-.06.24-.28.35-.57.35H15.69v2.62h1.89ZM5.9,16.74a13.74,13.74,0,0,0,4.42-3.45l1.94,1c-.16.22-.49.29-1,.2a15.68,15.68,0,0,1-5.17,2.55ZM6.34,1.39,6.14.75H10.3L11,0l1.54,1.15a1.28,1.28,0,0,1-.77.37V3.89c0,.16-.66.47-1.1.47h-.2V3.65H7.66V5.41c0,.22,0,.29.59.29H9.66c.64,0,1.17,0,1.36,0a.35.35,0,0,0,.33-.14,5.45,5.45,0,0,0,.44-1.16h.27l.06,1.16c.42.14.55.25.55.49,0,.53-.57.7-3.05.7H8c-1.35,0-1.54-.28-1.54-1.12V2.35L7.94,3h2.53V1.39Zm4.71,11h3.28V9.75H11.05Zm2.28-11L13.14.75h4.29l.7-.75,1.54,1.19a1.41,1.41,0,0,1-.75.35V3.89c0,.16-.66.47-1.12.47h-.2V3.65H14.76V5.41c0,.22.05.29.6.29H16.9c.66,0,1.25,0,1.45,0a.31.31,0,0,0,.31-.14,5.48,5.48,0,0,0,.48-1.27h.27l.06,1.25c.42.16.55.27.55.51,0,.53-.57.7-3.19.7H15.07c-1.36,0-1.58-.28-1.58-1.12V2.35L15,3H17.6V1.39ZM13.8,13.6c7.81,1.47,5.28,4.57,3.91,3.28a11,11,0,0,0-4.05-2.95Z"/><path class="cls-1" d="M2.46,25a3.2,3.2,0,0,1,1.13.64A3.86,3.86,0,0,1,5.06,28c0,.48-.33.87-.84,2.15a14.75,14.75,0,0,0-1.43,5.7A4.29,4.29,0,0,0,3.21,38c.13.24.31.28.49,0,.46-.75,1.65-3.59,2.13-4.69l.53.24C5.94,34.7,5,37.16,4.75,38a5.43,5.43,0,0,0-.33,1.48c0,.68.29,1.34.29,1.89a.59.59,0,0,1-.62.66c-.39,0-.75-.35-1-.81a9.77,9.77,0,0,1-1.28-5.06,20.72,20.72,0,0,1,1-6,12.28,12.28,0,0,0,.55-2.53,3.69,3.69,0,0,0-1.24-2.33Zm9.29.4A5,5,0,0,1,13.33,25c.95,0,2.09.59,2.09,1.1s-.19.57-.33,1.5a17.24,17.24,0,0,0-.19,1.8,7.59,7.59,0,0,0,1.36-.49,11.94,11.94,0,0,1,1.41-.57c.46,0,1.14.27,1.14.71s-.31.59-1,.86a21.11,21.11,0,0,1-2.93.77c0,2.22.22,4.4.33,6.07a8.4,8.4,0,0,1,3.55,1.93,1.81,1.81,0,0,1,.7,1.24c0,.44-.2.68-.57.68s-.57-.24-1-.64a9.3,9.3,0,0,0-2.58-1.85c0,.2,0,.42,0,.6,0,1.67-1,2.81-3.69,2.81-1.89,0-3.46-.88-3.46-2.44,0-1.87,1.9-2.71,4.25-2.71a12.26,12.26,0,0,1,1.54.11c-.07-1.51-.2-3.76-.24-5.63a15.39,15.39,0,0,1-2.42.2C10,31,9.07,30.71,7.9,29l.33-.33a4.61,4.61,0,0,0,3,1.12,13.49,13.49,0,0,0,2.49-.22c0-1.08,0-2.31,0-2.86s-.11-.64-.42-.72a6.53,6.53,0,0,0-1.49-.22ZM14,37.56a8.55,8.55,0,0,0-2.22-.27c-1.34,0-2.79.57-2.79,1.61s1,1.38,2.24,1.38c2.36,0,2.77-.9,2.77-2.61Zm2.14-13.32a8.14,8.14,0,0,1,2.24,1.57A1.8,1.8,0,0,1,19,27.15a.53.53,0,0,1-.57.55c-.36,0-.51-.53-.93-1.15a8.32,8.32,0,0,0-1.65-1.95Zm1.67-1.32a9,9,0,0,1,2.29,1.3,1.94,1.94,0,0,1,.7,1.37.51.51,0,0,1-.57.55c-.35,0-.53-.53-.92-1.08a8.31,8.31,0,0,0-1.79-1.78Z"/><path class="cls-1" d="M20.9,60.39a5.75,5.75,0,0,1-4.44,2.75c-1.52,0-2.58-1-2.58-2.88,0-2.4.91-4.88.91-7.19,0-1.37-.4-2.1-1.48-2.1-1.82,0-4.31,1.92-6.47,4.3A41.36,41.36,0,0,0,7,61.6c0,.57.11,1,.11,1.52,0,.73-.33,1.76-.9,1.76-.42,0-.66-.26-.75-.75a6.23,6.23,0,0,0-.37-1.38A15.33,15.33,0,0,0,3.56,60l-1.36,2c-.26.35-.48.64-.81.64a.69.69,0,0,1-.58-.75,1.49,1.49,0,0,1,.47-1.12A53.22,53.22,0,0,0,6,54.61c.07-.62.14-1.19.2-1.76-.72.37-1.47.79-2,1.1s-.68.77-1,.77A2.42,2.42,0,0,1,1.34,53.2a3,3,0,0,1-.09-1l.4-.13c.33.66.64,1,1,1a16.63,16.63,0,0,0,3.66-1.54c.17-1.36.3-2.49.33-3.1s-.09-.6-.49-.73A8.74,8.74,0,0,0,5,47.43V47a4,4,0,0,1,1.32-.24c.9,0,2,1,2,1.59,0,.46-.26.66-.51,1.51-.1.33-.24.89-.41,1.59.35.22.77.64.77.86s-.25.41-.51.77-.42.53-.66.86c2-1.85,4.58-3.77,6.76-3.77,1.49,0,2.44.93,2.44,2.93,0,1.69-.95,4.73-.95,6.93,0,1.17.51,1.65,1.54,1.65A5.2,5.2,0,0,0,20.55,60Zm-15-3.74c-.57.88-1.3,1.89-2,2.84.6.84,1.37,1.83,1.68,2.2s.3.2.3-.15c0-1-.08-3,0-4.89"/><path class="cls-1" d="M6.05,70.75c.29.6.57,1.28,1.14,1.28a26.51,26.51,0,0,0,4.56-1c.48-.13.53-.35.84-.35.66,0,1.87.92,1.87,1.51,0,.42-.51.44-1.28,1.08-1.1.95-3.94,3.7-4.93,4.75-.15.16-.07.33.13.25a10.16,10.16,0,0,1,3.7-.77c2.79,0,5.21,1.84,5.15,4.84-.07,2.7-2.47,4.93-6.56,4.93-2.42,0-4.09-1-4.09-2.53a2.23,2.23,0,0,1,2.44-2,3.51,3.51,0,0,1,3.52,3.1A4.06,4.06,0,0,0,15.8,82a3.71,3.71,0,0,0-4-3.74c-3.1,0-5.26,1.94-7.1,4.27-.31.4-.49.53-.82.53s-.59-.33-.57-.9c0-.38.2-.68.7-1.21,3.37-3.46,7.27-7.2,8.17-8.67.22-.29.09-.4-.18-.33a27.62,27.62,0,0,0-3.45,1.17c-.42.17-.73.5-1.08.5A2.25,2.25,0,0,1,5.65,72a3.63,3.63,0,0,1,0-1.23ZM11.24,86a2.65,2.65,0,0,0-2.53-2.53c-.79,0-1.36.44-1.36,1.15s.92,1.43,3,1.43a8.27,8.27,0,0,0,.9,0"/><path class="cls-1" d="M7.94,105.05c-1.65.86-3.89,2.11-6.77,3.57a.86.86,0,0,1-.47.55L0,107.36c.64-.15,1.74-.53,3.1-1v-6.24H.51l-.16-.62H3.1V94.18H.44l-.15-.61H5.06l1-1.3a22.68,22.68,0,0,1,1.87,1.58c0,.24-.26.33-.57.33H4.51v5.35h.62L6,98.25s1,.93,1.63,1.54c0,.25-.25.36-.55.36H4.51v5.76l3.3-1.17Zm11,3.54s1.23,1,1.93,1.68c-.06.22-.26.33-.57.33H6L5.85,110h7v-3.87H8.21L8,105.45h4.84v-3.37H9.53v.9c0,.18-.57.49-1.17.49H8.12V92.11l1.52.71h8l.81-.88L20.2,93.3a1.83,1.83,0,0,1-.95.44v8.78c0,.16-.72.53-1.18.53h-.22v-1H14.28v3.37H17.1l1-1.3s1.15.92,1.83,1.61c-.05.24-.27.35-.57.35H14.28V110h3.65ZM9.53,97.11h3.34V93.46H9.53Zm3.34.66H9.53v3.67h3.34Zm1.41-.66h3.57V93.46H14.28Zm3.57.66H14.28v3.67h3.57Z"/><path class="cls-1" d="M19.49,119.66a2.09,2.09,0,0,1-1.14.53v13.4a1.88,1.88,0,0,1-1.25.5h-.22v-1.63H3.79v1.28c0,.18-.56.53-1.19.53H2.33V118.4l1.59.73H9.51v-4.82l2.24.27c-.07.3-.24.52-.77.61v3.94h5.65l.86-1Zm-15.7,5.65H9.51v-5.54H3.79Zm0,6.52H9.51V126H3.79ZM11,125.31h5.9v-5.54H11Zm5.9.64H11v5.88h5.9Z"/></g></g></svg>