<svg xmlns="http://www.w3.org/2000/svg" viewBox="0 0 72 35.8"><defs><style>.cls-1{fill:#fff;}</style></defs><g id="Layer_2" data-name="Layer 2"><g id="design"><path class="cls-1" d="M72,11.94c-1.55,1.5-3,3.15-4.72,4.5-2.23,1.77-2.45,3.19-.48,5.27,1.34,1.41,3,2.6,3.13,4.92-4.41.82-8.18-.9-12-2.49S52.54,22.77,50,26c-2.27,2.83-5.23,3.49-8.54,3.89-4.59.55-9.15,1.36-13.28,2l2,3.66c-3.14.91-5.39-.68-7.28-2.09-2.76-2.07-5.88-2-8.91-2.62C10.21,30,6.42,29.19,2.72,28.09c-2.53-.75-3.24-4-2.36-6.74C2.73,14,8.43,10.31,15.05,7.66,16.73,7,17.74,6.16,18,4.34a6.44,6.44,0,0,1,.91-1.72l.57,1.22L22.33,0c.43,2.5.48,2.5,3.35.32L25,3.38,28.76,1l-1.27,2.7,3.83-1.38-.41,2.13L34,3.2l-.73,2h2.4l.24.3L34.74,6l.19.47,1.85.29c.25.54.33,1.14.58,1.22,3.83,1.26,7.7,2.41,11.53,3.69,2.42.8,2.65,1.91.8,3.7,2.43,2.12,4.92,1.49,7.46.34,3.21-1.45,6.36-3.06,9.67-4.22C68.26,11,70.11,9.78,72,11.94Z"/></g></g></svg>