<svg xmlns="http://www.w3.org/2000/svg" viewBox="0 0 72 72"><defs><style>.cls-1{fill:#fff;}.cls-2{fill:none;}</style></defs><g id="Layer_2" data-name="Layer 2"><g id="design"><path class="cls-1" d="M36,10.9C42.6,3.11,55.08,2.66,61.78,6.44c6.34,3.59,9.4,9.3,10.08,16.31,1,9.91-3,18.15-9.84,24.9-6.11,6.08-12.64,11.78-19.31,17.24-5.94,4.87-9.19,3.41-14.27-.44A139,139,0,0,1,13,51.22C7.26,45.37,1.93,39,.46,30.48c-2-11.55,2.41-23.64,15.6-26C23.43,3.14,30.52,4.66,36,10.9ZM46.81,28c-1.67,1.4-2.86,2.79-4.37,3.58-2.79,1.45-5.66,3.18-8.67,3.62C29,35.92,25.5,33,22.42,29.61c-2.23-2.44-2.28-2.82.06-5.15L32.62,14.35C25.89,6.68,12.33,6.43,7,16c-3.76,6.79-3.19,13.89.67,20.58,6.22,10.78,16.24,17.82,25.6,25.45,1.46,1.19,3.41,2,5.22-.28l-7.24-7.19c-3-3-3-3,1-6.1l9.93,10.64,4.27-3.39c-3-3-5.75-5.76-8.61-8.4-1.45-1.34-1.06-2.23.16-3.4s2-1.82,3.4-.29c2.14,2.32,4.44,4.49,6.67,6.72,2.54,2.53,2.71,2.51,5.28-1.21L43.16,39.31l3.38-3.91L56.93,46.57,60.53,42c-4.28-4.25-8.24-8.17-12.18-12.1C47.82,29.35,47.39,28.74,46.81,28ZM63.6,38.13c.73-1.45,1.25-2.39,1.69-3.37,2.89-6.35,3.08-12.79-.4-18.87-5.22-9.1-17.7-9.21-24.63-2.59-3.69,3.52-7.18,7.25-10.87,10.78a20.59,20.59,0,0,1-3.54,2.26c6,5.52,8.09,5.51,12.8,2,2.83-2.14,5.44-4.57,8.28-7Z"/><rect class="cls-2" width="72" height="72"/></g></g></svg>