<svg xmlns="http://www.w3.org/2000/svg" viewBox="0 0 52.7 72"><defs><style>.cls-1{fill:#fff;}</style></defs><g id="Layer_2" data-name="Layer 2"><g id="design"><path class="cls-1" d="M7.6,24.24c1.58,5.22,4.55,8.4,10.42,8a14,14,0,0,0-2.17-2.47,8.78,8.78,0,0,1-3.51-6.2,3.67,3.67,0,0,1,1.29-2.72l2.79,6.79.61-.18c.26-2.49.43-5,.79-7.45a8.91,8.91,0,0,1,1.11-3.46c.76-1.19,1.4-2,1-3.7-.43-2,1.45-2.12,3.09-2,2.53-6.32.7-6.44-1-10.86L26.3,5.48,30.53,0l.61.35C28.37,3.61,27.05,7.06,29.7,11c2.49-.36,3.11.28,2.7,2.94-.06.39-.11,1,.1,1.18,3.32,3.53,2.3,8.05,3.08,12.92a28.52,28.52,0,0,0,2.17-3.66,24.8,24.8,0,0,0,.83-3.93c2.91,2.27,1.43,4.39.66,6.18-.57,1.32-2,2.29-3,3.44a7.41,7.41,0,0,0-1.53,2.35c2.64.25,5-.18,6.66-2a48.91,48.91,0,0,0,3.88-5.84c1.27,1.76.72,4.47-1.07,6.56A11.16,11.16,0,0,1,31.5,33.85a13.51,13.51,0,0,0-11,.08A10.09,10.09,0,0,1,7.24,29C6.66,27.72,5.41,26.31,7.6,24.24Z"/><path class="cls-1" d="M17.16,68.07c-1.55-.12-3.3.13-4.69-.46A2,2,0,0,1,12,64a22.62,22.62,0,0,0,7.43-9.86c.43-1,2.72-1.41,4.23-1.67a19.83,19.83,0,0,1,5,0c2.44.2,4.25.9,5.38,3.69,1.07,2.63,3.23,5,5.34,7,1.24,1.18,2.66,2.08,1.6,3.75s-2.9,2.08-4.8,1c-.28-.15-.57-.29-.66.21-1.54.62-3.08,1.2-4.6,1.85a10.23,10.23,0,0,0-2.06,1.17,4,4,0,0,1-5.19,0,13.18,13.18,0,0,0-2.3-1.19C20,69.26,18.63,68.69,17.16,68.07Z"/><path class="cls-1" d="M5.55,31.52A21.17,21.17,0,0,1,7.19,33.8c1.51,2.87,6.85,5.32,9.94,4.48a2,2,0,0,0,.84-.47c3.85-3.55,11.13-4.68,15.11-1.37,2.65,2.22,5,1.94,7.57,1.3a8.46,8.46,0,0,0,5.86-5.24,5.75,5.75,0,0,1,.53-.85l.94.16a7.87,7.87,0,0,1,0,2.57c-1.46,4-4.82,5.23-8.64,5.94-1.74.31-4-1.36-5.23,1.14,0,.07-.64-.1-.93-.24a15.45,15.45,0,0,0-13.79-.1A16,16,0,0,0,16,40.3c-3.69.06-7.15-.52-9.53-3.64a25,25,0,0,1-2.17-4.33Z"/><path class="cls-1" d="M43.54,54.78c-.86-1.9-1.73-3.8-2.58-5.7-1.12-2.5-3.55-3-5.8-3.69-.46-.13-1.23.83-2.1,1.47a15.38,15.38,0,0,0-14,.24l.15-.78c-.83-.26-1.74-.88-2.47-.71-3.85.87-5.45,3.88-6.51,7.31-.19.65-.4,1.28-.6,1.92H8.7c-.13-1.18-.67-2.49-.33-3.51,1.21-3.59,3.06-6.62,7.2-7.68,2.83-.73,5.43-2.36,8.27-3a11.59,11.59,0,0,1,10.06,2,5.35,5.35,0,0,0,2.26.69c5.07.84,7.84,4.5,8.63,9.39a6.05,6.05,0,0,1-.53,2.13Z"/><path class="cls-1" d="M32.81,52.72a15.07,15.07,0,0,0-13.14.06l-1.09-2.15-3.47,7.14a7.53,7.53,0,0,1,2.06-8.21c4.17-3.76,9-4,13.78-2.59,3.38,1,6.57,3,7.61,6.88.09.32.3.68.22.95-.23.76-.58,1.49-.87,2.24a9.93,9.93,0,0,1-1.5-1.76c-.45-.85-.58-1.87-1-2.72-.27-.51-.88-.83-1.33-1.24Z"/><path class="cls-1" d="M18.08.85c2.92.33,6,3.73,5.59,6.34-.06.34-.51.87-.75.86a2.19,2.19,0,0,1-1.44-.62,6.9,6.9,0,0,1-.66-1.82C20,3.38,18.23,2.4,16.53,3.83A127.55,127.55,0,0,0,6.25,13.69c-1.61,1.69-2.71,3.87-4.18,5.72-.32.41-1.22.36-1.85.51,0-.58-.38-1.36-.12-1.72,4-5.65,7.75-11.49,13.53-15.53A20.88,20.88,0,0,1,18.08.85Z"/><path class="cls-1" d="M34.85,1.19c3.08-.12,5.42,1.57,7.25,3.63,3.64,4.13,7,8.5,10.36,12.86.4.52.16,1.55.22,2.34-.73-.36-1.69-.54-2.17-1.11-3.42-4.1-6.68-8.34-10.13-12.41a11.79,11.79,0,0,0-3.56-2.58c-2.26-1.16-4.25-.29-4.94,2.1-.29,1-.07,2.47-1.69,2-.37-.12-.49-1.79-.32-2.67A4.62,4.62,0,0,1,34.85,1.19Z"/></g></g></svg>