<svg xmlns="http://www.w3.org/2000/svg" viewBox="0 0 72 72"><defs><style>.cls-1{fill:#fff;}.cls-2{fill:none;}</style></defs><g id="Layer_2" data-name="Layer 2"><g id="design"><path class="cls-1" d="M59.83,0V72H12.17V0ZM55,21H17.08V67H55Zm-.15-5.15V4.6c-1.11.25-2.4.14-3,.73-2.31,2.23-3.14,2.21-5.68.11a3.28,3.28,0,0,0-3.2.23c-1.72,1.67-3.82,2-5.29.1-1.27-1.66-2.4-1.33-3.54-.11-1.63,1.73-3.83,2-5.24.2s-2.5-1.62-3.76.2c-1,1.4-3.57,1.24-4.81.06a20.34,20.34,0,0,0-3.17-2V15.82Z"/><path class="cls-1" d="M50.37,62.69H21.58V32.05H50.37ZM45.57,37H25.91V58.21H45.57Z"/><rect class="cls-2" width="72" height="72"/></g></g></svg>