<?xml version="1.0" encoding="UTF-8"?><svg id="Layer_2" xmlns="http://www.w3.org/2000/svg" viewBox="0 0 93.78 77.15"><defs><style>.cls-1{fill:#bf961b;}.cls-1,.cls-2{stroke:#767777;stroke-linecap:round;stroke-linejoin:round;stroke-width:4px;}.cls-2{fill:none;}</style></defs><g id="footer"><g><polygon class="cls-1" points="46.89 32.68 79.62 21.77 46.89 11.64 14.16 21.77 46.89 32.68"/><line class="cls-2" x1="46.89" y1="43.01" x2="46.89" y2="75.15"/><path class="cls-2" d="M14.16,41.28v18.83c0,1.78,1.11,3.38,2.78,4l27.74,10.24c1.42,.52,2.98,.52,4.41,0l27.74-10.24c1.67-.62,2.78-2.21,2.78-4v-18.83"/><path class="cls-2" d="M46.89,11.64L35.12,2.9c-1.18-.87-2.7-1.13-4.1-.69L2.64,11.1c-.71,.22-.87,1.16-.26,1.6l11.78,8.56"/><path class="cls-2" d="M14.16,21.27L2.64,33.57c-.82,.87-.47,2.29,.65,2.69l26.05,9.33c1.92,.69,4.06,.21,5.5-1.23l11.26-11.23"/><path class="cls-2" d="M46.89,11.64L58.66,2.9c1.18-.87,2.7-1.13,4.1-.69l28.39,8.89c.71,.22,.87,1.16,.26,1.6l-11.78,8.56"/><path class="cls-2" d="M79.62,21.27l11.52,12.3c.82,.87,.47,2.29-.65,2.69l-26.05,9.33c-1.92,.69-4.06,.21-5.5-1.23l-11.26-11.23"/></g></g></svg>