<?xml version="1.0" encoding="UTF-8"?><svg id="Layer_2" xmlns="http://www.w3.org/2000/svg" viewBox="0 0 83.4 81.88"><defs><style>.cls-1{fill:#fff;}.cls-2{fill:#bf961b;}.cls-3{fill:none;stroke:#767777;stroke-linecap:round;stroke-linejoin:round;stroke-width:4px;}</style></defs><g id="footer"><g><ellipse class="cls-3" cx="51.67" cy="10.37" rx="29.73" ry="8.37"/><path class="cls-3" d="M81.4,25.58c0,4.49-12.56,8.16-28.33,8.37"/><path class="cls-3" d="M81.4,40.23c0,3.84-9.18,7.08-21.69,8.06"/><path class="cls-3" d="M81.4,54.88c0,3.92-9.58,7.22-22.51,8.13"/><line class="cls-3" x1="21.94" y1="21.94" x2="21.94" y2="10.37"/><path class="cls-3" d="M81.4,10.37v58.39c0,4.63-13.31,8.37-29.73,8.37-.81,0-1.6,0-2.39-.03"/><circle class="cls-3" cx="28.38" cy="53.5" r="26.38"/><circle class="cls-2" cx="28.38" cy="53.5" r="18.88" transform="translate(-29.52 35.74) rotate(-45)"/><path class="cls-1" d="M24.41,58.05c.4,.47,.86,.85,1.39,1.14,.5,.32,1.12,.52,1.85,.61v-5.32c-2.83-.71-4.21-2.31-4.14-4.77,.05-2.86,1.43-4.48,4.14-4.88v-1.68h1.22v1.68c1.49,.02,2.83,.55,4.03,1.59l-1.39,1.8c-.78-.67-1.66-1.04-2.64-1.12v5.08c2.94,.71,4.39,2.34,4.35,4.91-.02,1.33-.41,2.44-1.19,3.32-.78,.91-1.83,1.46-3.17,1.66v2.57h-1.22v-2.57c-.92-.02-1.8-.23-2.64-.64-.85-.43-1.6-.97-2.27-1.62l1.68-1.77Zm3.24-10.94c-.46,.06-.85,.29-1.19,.7-.15,.2-.27,.45-.36,.76-.11,.3-.16,.67-.16,1.09,0,.54,.13,1,.38,1.36,.25,.38,.69,.68,1.33,.88v-4.8Zm1.22,12.69c.73-.19,1.24-.53,1.53-1,.27-.47,.41-1.04,.41-1.72,0-.55-.13-1.04-.38-1.46-.27-.41-.79-.69-1.55-.85v5.03Z"/></g></g></svg>