<?xml version="1.0" encoding="UTF-8"?><svg id="_レイヤー_2" xmlns="http://www.w3.org/2000/svg" viewBox="0 0 160 159.99985"><defs><style>.cls-1{fill:#fff;}.cls-2{fill:#06c755;}</style></defs><g id="designのコピー_2"><g><rect class="cls-2" width="160" height="159.99985" rx="36.07012" ry="36.07012"/><g><path class="cls-1" d="M133.32791,72.46208c0-23.86963-23.92971-43.28966-53.34426-43.28966-29.41193,0-53.3441,19.42003-53.3441,43.28966,0,21.39935,18.97763,39.32102,44.61269,42.70897,1.73685,.3754,4.10187,1.14555,4.69962,2.6307,.53782,1.34808,.35204,3.4611,.17272,4.82331,0,0-.62587,3.76412-.76155,4.5667-.23265,1.34777-1.07226,5.27447,4.62063,2.87579,5.69381-2.39913,30.72037-18.08946,41.91223-30.97069h-.00246c7.73061-8.47833,11.43449-17.0819,11.43449-26.63479Z"/><g><path class="cls-2" d="M115.58158,86.24515h-14.98686c-.56256,0-1.01848-.45592-1.01848-1.01848v-23.28064c0-.56256,.45592-1.01848,1.01848-1.01848h14.98686c.56025,0,1.01863,.45822,1.01863,1.01848v3.78302c0,.56256-.45607,1.01863-1.01863,1.01863h-10.18521v3.92854h10.18521c.56025,0,1.01863,.45838,1.01863,1.01863v3.78302c0,.56256-.45607,1.01863-1.01863,1.01863h-10.18521v3.92854h10.18521c.56025,0,1.01863,.45838,1.01863,1.01848v3.78317c0,.56256-.45607,1.01848-1.01863,1.01848Z"/><path class="cls-2" d="M60.14459,86.24515c.5624,0,1.01848-.45592,1.01848-1.01848v-3.78317c0-.5601-.45835-1.01848-1.01848-1.01848h-10.18537v-18.479c0-.56025-.45838-1.01848-1.01848-1.01848h-3.78317c-.56256,0-1.01848,.45592-1.01848,1.01848v23.28064c0,.56256,.45592,1.01848,1.01848,1.01848h14.98701Z"/><rect class="cls-2" x="64.36508" y="60.9274" width="5.82012" height="25.31775" rx="1.01848" ry="1.01848"/><path class="cls-2" d="M94.92103,60.9274h-3.78317c-.56256,0-1.01848,.45607-1.01848,1.01848v13.82748l-10.65158-14.38466c-.02474-.03703-.05255-.07176-.0819-.10526-.00197-.00246-.0043-.00476-.00658-.00738-.01969-.02197-.03995-.04318-.06133-.06346-.00628-.00584-.01275-.01152-.01905-.01736-.01813-.01613-.0364-.03181-.05532-.04671-.00907-.00707-.01829-.01368-.02766-.02059-.01736-.01275-.03534-.0252-.05378-.03703-.01027-.00661-.02074-.01275-.03119-.0189-.01859-.01091-.03703-.02136-.05624-.03104-.0106-.00553-.02151-.0106-.03242-.01567-.01949-.00907-.03934-.01767-.05944-.02566-.01109-.00415-.02215-.00814-.03321-.01214-.02044-.00707-.04087-.01383-.06177-.01982-.01199-.00338-.02413-.0063-.03611-.00922-.02013-.00492-.04011-.00953-.06054-.01321-.01444-.00261-.02889-.00461-.04333-.00661-.01829-.00261-.03657-.00522-.05501-.00676-.01813-.00154-.03611-.00215-.0544-.00261-.01152-.00046-.02305-.00184-.03488-.00184h-3.76227c-.5624,0-1.01845,.45607-1.01845,1.01848v23.2808c0,.5624,.45605,1.01848,1.01845,1.01848h3.78317c.56256,0,1.01848-.45607,1.01848-1.01848v-13.82318l10.66495,14.40279c.07345,.10388,.16319,.18885,.26263,.25646,.00397,.00277,.00781,.00553,.01196,.00814,.02074,.01383,.04226,.02674,.06392,.03888,.00968,.00553,.01952,.01106,.02966,.01629,.01613,.00845,.03258,.01629,.04933,.02382,.0166,.00753,.03304,.01475,.04994,.02151,.0106,.00415,.02151,.00799,.03227,.01183,.02305,.00814,.04625,.01583,.07025,.02243,.00474,.00138,.00966,.00261,.01457,.00384,.08513,.02243,.1741,.03565,.26614,.03565h3.76243c.5624,0,1.0185-.45607,1.0185-1.01848v-23.2808c0-.5624-.45609-1.01848-1.0185-1.01848Z"/></g></g></g></g></svg>