<svg xmlns="http://www.w3.org/2000/svg" viewBox="0 0 244.42 120"><defs><style>.cls-1{fill:#e3c791;fill-rule:evenodd;}</style></defs><g id="Layer_2" data-name="Layer 2"><g id="Design"><path class="cls-1" d="M104,33.62c.18-.54,1.35-.09,1.92-.24C105.92,34.11,104.37,33.94,104,33.62Z"/><path class="cls-1" d="M106.9,33.38h1.2c-.25.17-.81,1.23-1.2.48Z"/><path class="cls-1" d="M80.72,34.82c0,.69-1,.44-1.68.48C78.85,34.39,80.18,35,80.72,34.82Z"/><path class="cls-1" d="M116.51,41.78a3.19,3.19,0,0,1-1.44-1C115.58,40.17,116.5,41.14,116.51,41.78Z"/><path class="cls-1" d="M124.43,56c1.32-.12,1.88.52,2.88.72C126.76,57.84,124.52,56.83,124.43,56Z"/><path class="cls-1" d="M127.79,56.67a3.76,3.76,0,0,0,2.4.48c.08.56-.69.27-.72.72C128.72,57.67,128,57.43,127.79,56.67Z"/><path class="cls-1" d="M133.8,57.87c-.22,1.53-2.09.11-3.12.24C131.15,57,132,58,133.8,57.87Z"/><path class="cls-1" d="M147.48,62.44A20.27,20.27,0,0,1,142,61C143,59.69,146.69,61.15,147.48,62.44Z"/><path class="cls-1" d="M168.14,62.68c-.87.62-2.62.06-3.36-.24C166,61.62,167.05,62.24,168.14,62.68Z"/><path class="cls-1" d="M169.58,63.16a47.53,47.53,0,0,1,5.52,1.2C173.8,65.15,170.79,64,169.58,63.16Z"/><path class="cls-1" d="M219,67.14c-2,3.25-8.2,3.61-10.57.48C211.66,67.67,215.54,67.13,219,67.14Z"/><path class="cls-1" d="M214.35,73.66c.06,3.08,3.11,4.4,2.89,7a10.13,10.13,0,0,1-1.69-1.44c-.46.25.61,1,.24,1.92A99.49,99.49,0,0,1,207.15,72c.89-.17,1,.41,1.92.24,0-.23-.29-.18-.48-.24C210.43,71.66,213,72.69,214.35,73.66Z"/><path class="cls-1" d="M37.5,76.85c3.58,1.61,8.14,2.26,10.56,5-1.05.82-1.6-.53-2.88-.24-.53,0-.1,1-.24,1.44-5.15-.31-7.7-1.74-10.57-4.32a11.74,11.74,0,0,1,2.65,0c0-.45-.82-.15-1-.48.59-.74,1.45.28,2.4,0C38.14,77.8,36.91,77.5,37.5,76.85Z"/><path class="cls-1" d="M30.53,45.63c.52.28.56,1,1,1.44.59-1.49.38-3.78,2.65-3.6v2.16c1.71-.69,2.39-2.41,5-2.16-.58-1-2.43-.78-2.88-1.93h1.44c0-.23-.3-.18-.48-.24,2-1.81,6.63-1,10.32-1.2-1.44-1.11-3.5-1.62-5.28-2.4-2.66,1.08-4,2-6.48,3.12.59-.41.39-.62-.24-.24-.34.09,0,.43.24.48-.22.66-.76-.33-1.45,0,1.3,1-2.72-.07-2.16,1.69a.66.66,0,0,1-.72-.48c-1.69,1.9-5,2.18-6.72,4.08-3.27.44-5.73,3-8.41,4.32-1,.49-2.59,1.36-3.6,1C29.19,40,47.77,30.45,70.88,25.45c3.1-3,6.92-8.51,4.8-14.4-1.15.18-1.07-.86-2.16-.72.84-.93,1.3-2.22,3.12-2.17C74.16,6,71.91,3.61,69.44,1.44,69.4.17,70.87.94,71.6,1c.71-.28-.88-.21-.48-1,5.33,1.23,10.12,3,13.93,5.76-1.67,0-1.71-1-3.61-1.2.94,1,3.15,1.94,4.08,1.44-.15.25-.55.25-.47.72.41-.21,1.51-.21.47,0,.37.37,1.47,1.24,1.93.72,1,1.68,4.1,2.78,6.72,3.61-.1.5.16.63.24,1,3.86.22,5.27,2.9,8.89,3.36,1.27-1,1.81-2.67,3.84-2.88-.89,1.11-1.7,2.3-2.64,3.36,1.68,1.14,4,2.59,6.24,2.4.57,1.63,3.48.8,4.57.24-.46.89.15.6.72,1,.07.64-1.35-.22-1,.72a6.66,6.66,0,0,0,2.64.48c-.63-1.16,4.2.11,5.76.48-.26.62-1.29.47-2.16.48,2.85.17,5.81-.95,8.88.24.12-.51-.34-.45-.72-.48,3-.41,4.73,2.48,7.21,3.36.14.89.39,1.4-.24,1.93,2.22.6,6.38,0,8.88,1-.25.89.6.68.48,1.44-1,.66-1.64,1.72-3.6,1.44-2.62,1.33-6.07,2.34-7.68,3.36,4.25,3,7.33-1.35,11.28-3.36,9.76-5,19-7.87,33.08-5.19.33.56,1-.13.77,1-.63.49-2.2,0-2.88.48a2.11,2.11,0,0,1-.48,2.17c-2.72.53-1.66-.51-4.07.11-2.11.54-6.88,6.08-9.13,7.68-.25.18-.72,0-1,.24-1.88,1.63-3.3,3.82-4.8,5.29.91,2.06,3.81.65,5.52,1.92.5-.07.07-1.06.49-1.2,1.7,2.28,5.42-.34,7.2,1.92.4,1.14-.17,1.84-.72,2.64,2.43,1.48,8.34-1.77,9.36,1.2-.66.7-1.08,1.64-2.16,1.92,1.64,1.72,4.9.36,7.93.72.22.48.78,1.14.24,1.68,1.68,1.17,4.34.53,6.48.24q.17,1.13-1,1c1.47.74,3.23-.29,5,0,0-1.36-1.6-2.12-2.88-2.88.26-1.88,2.27,1.46,2.64-.72,2,.44,8-.77,9.09.5,4.5-2.67,9.4-6.64,18.58-11.14a104.61,104.61,0,0,1,15.93-6.42l3.87-1.2c1.61.36.45-.09,1,1.35a4.26,4.26,0,0,1,.44,2.59c0,1.61-3.46,4.53-4.83,6a64.72,64.72,0,0,0-7.86,10.44,90.78,90.78,0,0,0-6.08,10.14c-2.29,4.18-2,7.23-1.53,11.16.2,1.55,3.5,11.23,4.38,14.23.67,2.29,5.13,8,6.13,9.5A43.29,43.29,0,0,1,237,101.7c1.13,2,2.26,1,3,1.25s.37,1.63-.13,2.13-.5,1-1,1.12a2.24,2.24,0,0,1-1,0s-22.51-13.63-25.39-17-5.92-7.54-5.92-7.54c-2.53,1.39-3.19-.44-5.76-.72-.1-.5.16-.64.24-1-1.76.4-4.93.13-6.25.24-1.22-.72-1.53-3.29-1.92-4.09-.18.38-.76.36-.72,1-.75-.61-2-.69-2.88-1.21.74.46,1.76,1.65,1,2.89-3.26,0-4.61-2-5.28-4.57h-4.33c1.22.74,4,.51,2.89,2.89h-1.68a3.09,3.09,0,0,0-.48,1.68c-3.6.47-4.87-1.38-5.77-3.61-.53,0-.1,1-.24,1.45-1.75-.15-1.8,1.39-2.64,2.16a8.11,8.11,0,0,1-2.4-.24c.37,1.43-.12,2.32-1.92,2.16-.41.39-.3,1.3-.72,1.68-2.81-.08-4.43-1.34-6.49-2.16-.54,5.1,2.38,10.11,2.65,14.41.1.35.3-.1.71,0-.32,1.28.81,1.11.73,2.16a3.73,3.73,0,0,0,1.92-2.16c.87-.16.29,1.14,1,1.2-3.07,3.08.3,8.07,3.6,9.6.73-.31,1.85-.23,2.16-1-2,7.37-10.69.37-12-3.6-3.42.46-4.25-1.67-6.72-2.16-.52-.5.12-.69,0-1.44-.94.19-1.25.25-1.92-.24.46-1.28-2.94-1.69-2.4-3.84a.63.63,0,0,0-.72.48c.1.35.3-.1.72,0-.69,1.07-1-.23-1.68-.48.15-.72.51.22,1,0-.29-1.16-1-.92-1.92-1.69-.09-.4.18-.45.48-.48-2.14-2.2-3.15-4.06-5.05-6.48-2.34.93-4.46,2.1-7,2.88.23.33.81.31,1,.72-1,1-3.47.37-4.56,1.2.68.6,2.77-.21,2.88,1-3.12,1-7.44.89-10.33,2.16a25.23,25.23,0,0,1-8.16,4.33c-.21.43-.62.66-.72,1.2-.55.06-.91-.06-1-.48-1,.69-2.21,1.68-2.89,1.44-1.73,1.94-5.46,1.9-6.72,4.32-2.56.38-5.28,3-7.45,2.16-.71,0-.3,1.13-.72,1.44-.53-.1-.19-1.27,0-1.44-1,0-.27,1.51-.24,1.92-.7-.2-1.25,2.65-1.2,3.85.94.82,1.12,2.78,2.4,3.84a1.48,1.48,0,0,1,0,1.2c.34,1,2.62-1,2.44.53.77,0,.51-1.08,1.68-.72-.33.31-.15,1.14-.48,1.45.6.2,1.29.31,1.2-.73.82.72,0,1.55.24,2.89-2.27,1.24-2.9-1.22-5.77-.72-1.6-2.26-2.46-2.69-3.15-5.58-.53,0-.1,1-.24,1.44a2.08,2.08,0,0,1-1.44-.24,1.31,1.31,0,0,1,.24,1c-1.42.1-1.79,1.25-3.12,1.44-.77.21-.5-.62-1-.72-3.39,1.58-5.59-3.24-7.21-5.52a20.23,20.23,0,0,1-2.64-4.57c-6.64.42-12-1-18-1.2-.1-.37-.75-.2-.48-1-5.06.4-8-2.53-11.53-2.88-1.42-2-5.29-1.59-6.72-3.6-4.24-1.21-7.15-3.74-11.29-5v-.72a22,22,0,0,1-7.44-5c-1.75.23-2.19-1.33-3.36-2.16C17.32,82,8.31,80.8,6,77.18c-.56-.08-.9-.38-1.68-.24.11-.76-.6-.68-1-1,.08-.33.6-.2,1-.24-.26-1.31-1.16-.56-1.44-1.93.59-.12,1.79.18,1.92-1C3.09,72.24,2.46,70.55.72,70c.59-1.3-.34-1.27-.72-2.16.73-.17.87.25,1.44.24-.78-1.73,2.49,1,3.36,1.2,2.32.58,6.9,1.45,9.16,2.31.9.35,2.86-1.29,3.49-.84.43.31,1.21,3.14,2.28,3-.18.74.24.88.24,1.44h-1.2c-.09.49,0,.76.48.72-1.33,1.47-2.55-.22-4.57,0C22,79.4,28.82,84.51,37.74,88.13v.72c2-.17,2.63,1.05,4.32,1.2,0,.28-.44.21-.72.24a109.27,109.27,0,0,0,34.82,8.89c.22-1-.58-1-1.44-1-.88-2.29.79-3.16.72-4.81a10.79,10.79,0,0,1,4.08-.72c.14,2.12-.17,4,.72,6.25,0,.46,1-.51.72.72,2.13-.15,4.6-1,6.49,0,.46-2.55-.19-3.74-.72-6.48,2.16,1.75,4.6,3.24,6.24,5.52,3.64-.63,10.08-.89,12.49-2.64,5.17-1.83,9-4.27,14.41-6.25,0-.23-.29-.18-.48-.24a27.43,27.43,0,0,0,5.76-2.16c4.75-2.17,10.48-5.17,15.37-7.2.11-1.54-2.43-2.54-2.4-.72-.72-.32-1.1-2.14-.24-2.64-.87-.15-.53-1.74-.72-2.17.94-.3.71.57.72,1.2.53,0,.1-1,.24-1.44,1-.62,1-.23,2.16,0-.53.38-1.11.17-1.68,0,.12,1.12-.13,1.89,1.2,2.17.68-.84.52-2.53,2.4-2.17.32,1.65,2.36,2,3.12,1.92-.34,1.15.68.93,1,1.45,1.48-.29,2.44-1.09,4.09-1.2,0-1-1.47-.62-1.44-1.69.77,0,1,.43,1.92.24a1.82,1.82,0,0,0-.72-.48c.62-.52,2.26,0,2.64.48,1,.21,1.13-.46,1.92-.48.23-.68-1.53-1.21-.24-1.44-.2-.51-1-.38-1.44-.72.4-.46,2.21-.3,2.64,0,.71-.21-.56-.36-.24-1,2-.19,2.52,1,3.6,1.68,4.23-1,10.16-2.11,15.37-2.88-.32-.64-2.27.35-1.68-1.2h-1.2c1.76.5-1,1.1-1.68.48.06-.26.48-.16.48-.48a8.45,8.45,0,0,1-2.4.24c-.06-.74-.87-.74-1.2-1.2-2.2,1.42-3.79-2.07-6.49-1v-1c-1.74-.34-3.14-1.11-5.76-.48a1.11,1.11,0,0,0,.24-.72c-.92-.22-1.53.39-1.92,0,0-.53.6-.52,1.2-.48-1-1.23-1.88.57-2.88,0,.15-.25.55-.25.48-.72-.68-1-2,.06-3.36-.24.57-.63,1-.79-.48-.72-.2-.92,1.15-.29,1-1.2-6.28-2-16.82-4.86-23.78-6.25a6,6,0,0,1-2.4,1.2c.59-1.61-3.25-.7-4.32-1.44.49-.3,1.24-.36,1.68-.72-1.39-.47-2-1.08-3.36-.48.25.47,1.38.06,1.44.72-1.75.79-3.77-.23-5.29-.48C105.3,57.64,98,61,93.21,67c.4,2,2.21,3.62,1.44,6-.69,0-1.31,0-1.2-.72-.76.37.3,1.44-.24,1.68-1.44.84-1-1.54-2.64-1.2.18-.9-.3-1.14-.24-1.92-2,0-2.18,1.3-4.32.72-.61-1.87-.43-3.14,1-4.08C85,64,81.56,62,79,59.08c-2.67.31-3.46,5.63-6,1.92-.41,1.17.8,3.6-.48,3.36,2.75,1.56,1.93,6.71,3.36,9.6-.61,1.27.68,5.09,1,6.25-.07.49-.64.48-1,.72a8.2,8.2,0,0,0,1.2,1.92A12.16,12.16,0,0,1,76.4,85c.24.32.81.31,1,.72-1.76.49-.56,3.92-2.4,4.32q.35.38.72.72c-.07.5-.64.48-1,.72.92,1.1-1.37,2.67-2.88,2.89-.56,1.83-4,1.82-5.77,1.68-.77-.21-.33.79-1,.72-1.19-.09-1.75-.81-2.64-1.2-.2-.77.38-.75.48-1.2-1.17.2-1.59-.33-2.4-.48-.32-2.17-3.06-1.9-3.12-4.33.93-.21.85.59,1.44.72-.35-1.65-2.24-3-1.44-5,2.83,3.23,5.71,7.5,12,6.48,3-2.66,3.92-9.72,2.16-14.4.18-1.13.33-3.27-.72-3.85-1.06-5.2-1.82-12.74-5.29-16.33a.68.68,0,0,1,.72-.48c-.18-.45-.71-.16-.24-.72a5.91,5.91,0,0,1-2.16-2.4c-.91.53-1.49.39-3.12.48.19,1.6.86,1.53.48,3.36.36.07.43.32,1,.72-.52,2.06,1.09,3.37-.24,3.85,0,.52.85.11,1.2.24-1.37.8.52,2.85-1,3.84-.09.46,1.09.35.72-.24.69.39-.11,1.3-.24,1.68.87,4.43-3.53,11.17-7,12.73-2.72,1.23-4.88,2.15-7.69.24.2-1.08,2.08-.78,2.64-.24C56.41,79,59.16,73.89,59.35,68c-1-4.24-1.4-9.17-2.64-13.21-3.2-.15-6.49,1.46-9.37,2.4V56c-2.69,0-3.55-1.88-6.48-1.68a5.65,5.65,0,0,1-1.92,2.16c-1.55-.28,1-6.35-.19-5.74-2.77-.68-4.83-2.71-7-.5-.23,0-.18.29-.24.48m48.75-40.1c0,.66.46.82-.24.48,1.07,4.88-1.17,9.67-2.16,12.48,3.78-1.82,5.52-5.68,8.17-8.64-.94-.63-1.79.07-2.17-1.2.75-.32,1.34.71,1.68,0-.8.17-.78-.5-1.2-.72a2.39,2.39,0,0,1-2.64-.48c-.07-.56.7-.27.72-.72C80.41,12,81.67,11.21,80.24,10.57Zm10.57,5.52a13,13,0,0,1-3.36,0c-1,3-3,5-4.09,7.92,5.94.66,6.28-4.29,8.89-7-.31-.41-1.44,0-1.44-.72.9-.14-.18-1.27-.48-.72C90.6,15.66,90.7,15.88,90.81,16.09Zm6.24,2.4c1,.6,1-.43,2.16-.24a4.75,4.75,0,0,0-4.08-1.2C95.86,17.4,98.21,17.74,97.05,18.49ZM91.53,24h3.12c1.14-1.41,2.62-2.5,3.6-4.08-.62-.41-.82-.3-.24-1-1.85.91-2.78-1.22-4.08-.72C93.71,19.79,91.7,21.62,91.53,24Zm13.21-2.64a1.82,1.82,0,0,0-.72.48,11.1,11.1,0,0,1,3.84.72c-1-1.22-2.77-1.71-4.56-2.16C103,21.52,104.52,20.79,104.74,21.37Zm3.12-.48c1.34,1.17,2.5,0,0,0Zm-6.48,1c.05.75-.17,1.77.24,2.16-.77,0-1.84-.23-1.69.72,2.14,0,3.66.32,5.53-.24.07-.47-.32-.47-.48-.72.4,0,1.53.78,1.44-.24C104.54,23.17,103.48,22,101.38,21.85Zm16.33,2.88c-2.45-.19-5-1.52-7-1.44A11.08,11.08,0,0,0,117.71,24.73Zm-9.37,1.45c1.67-.47,4.89,2.59,7,.72-.35-.14-1.25.28-1.2-.24.14-.34.92,0,1-.48-1.07-.08-2.17-.5-3.13,0,.51-1.22-2.44-.78-2.16-1.93C109.16,24.75,108.34,25.05,108.34,26.18Zm-21.13.72H83.6c-.18.05-.47,0-.48.24C83.62,27.23,87.19,27.27,87.21,26.9Zm35.3,3.6c1.74-.22,2.11.93,3.84.72.3-1.23,1.84-2.48,1.44-3.6-1.82-.5-3.94,2.54-5.52.72a3.14,3.14,0,0,0,2.64-1c-.91-.05-1.45.38-2.4-.48-1.68.78-3.07.16-3.84,2.16C119.7,30,123,29.49,122.51,30.5Zm-19-1c-2.15.58-4.24-2.35-7.21-.72-.53-1.21-1.69-.32-3.12-.48.48-.92-1.09-1-1.2-.48.39-.18,1,.47.48.48-2.41-1.14-4.7-.24-7.93,0a1.11,1.11,0,0,1,.25-.72,6.54,6.54,0,0,0-3.85.72c-1.28-1.25-5.38.41-7.68,0,0,.28,0,.68-.24.72-1.17-.21-1.59.33-2.4.48-.34,0-.92.05-.48.24h3.6c1.42-1.27,4-.53,6-.72,4.84-.45,10.84-1.24,14.89.24-1.44-.34-2.71.76-4.8.48,1,2.33,4.69-.43,5.76.72-.35,0-2-.09-1.2.24,1.85.28,3.07-1.38,4.32-.24C99.22,28.67,102.94,30.77,103.54,29.54Zm48,11c.93-.12,1.17.43,2.16.24,4.17-4.87,9.45-8.64,14.65-12.48C159.48,29.12,153.33,32.66,151.57,40.58Zm-43.71-10.8c.42-.14,1.41.29,1.44-.24C108.12,29.74,107,28.35,107.86,29.78ZM86,30c1.42.22,2-.21,3.12.24C89.18,29.32,85.55,29.79,86,30Zm17.77.72c.57-.24,1.52-.08,1.44-1h-1C104.85,30.72,103,30.4,103.78,30.74Zm27.13,1.92c2.27,2.06,4.88-.12,6.25-1.68-2.38-.37-2.86,2.42-5,1.44,1-.86,2.2-1.47,2.88-2.64C132.07,29.17,132.29,31.72,130.91,32.66ZM81,31.46c.64.21,3.37-.48,1.2-.24C81.84,31.26,81.29,31.57,81,31.46Zm35.31,2.64c.28,0,.26.38.24.72a61.63,61.63,0,0,1-7.69-1c.92-.82,2.61.6,3.12-.48-4.6-.35-9.84-.18-14.41-.24,0,.36.09.89-.24,1a5.47,5.47,0,0,1-2.4-.72c.35-.13,1.24.28,1.2-.24a8.45,8.45,0,0,0-2.4.24c-.09.41.36.62,0,.72-2.09,0-4.1-.85-6,.48-1.18-.49-.38-1.8-1-1.92H86a1.48,1.48,0,0,0,0,1.2c-.67-.09-1.47.91-1.93.24-.25-.89.81-.47,1-1-2.87-.54-3.82.83-5.77,1.2-.08-.85-.66-.59-.24-1.44-1,.09-1.3.78-1.92,1.2.28,0,.68,0,.72.24-.82.65-1.85-.1-2.4-.48.25-.1.84-.93,0-.72,0,.37-.31.66-1,1,.77-.21.75.37,1,.72-.67.22-2.26-.49-2.16.48s2.45-1.44,3.12.24c-5,.84-12.76.49-17.29,3.12,3.8-.36,6.77-1.55,10.33-2.16,2.58,1,6.42-.26,9.6-.24-.28,0-.68,0-.72-.24,2.86.67,7.25-.2,10.09.48-1.17.27-1.67,1.21-2.64,1.68-1.57-.75-4.48.44-6-1.2h-.48c-2.16,2.69-9.35.65-11.29,2.88,1.05,0,2.31.23,2.41-.72,2.67,2,8.85-.51,11,1a98.37,98.37,0,0,1-10.8.48c-1.25,1.31-4.81,2.62-6.25,2.17,1.12,1.34-2.3,1-1.44,0-.38.65-1.41.66-2.16,1,2.07.77,4.93,4.18,6.72,2.88-.29-.05-.14-.27,0-.48-.44-.23-.8.72-1,0,.66.17-.17-1.13.48-1a4.66,4.66,0,0,1,2.17,1c-.11.37-.76.2-.48,1,2.07.32,3.84,2.24,5.52,2.16-1.34-.63,2.65-1.13,3.36-.48-.8.44-2-.27-2.88.48H79c.37-.85-.81-.15-.72-.72,2-.32,1.12.45,1.68.72.27-.77,1-1.06,1.92-1.2-.72,1.26,3.33,1,2.16.24,1.75-.11,5.58-.78,7.21.48a9.9,9.9,0,0,1,6.48-.24c8.47-1.86,16.6-4,27.38-3.6,0-1-1.6-.32-1.92-1,.37-.68,1.5-.58,1.92-1.2-2-.5-2.53,2.27-4.08.72.35-.14,1.24.28,1.2-.24-1.26.23-.49-.91,0-1,.84.07,0,.64.48.72-.17-.66,1.13.17,1-.48-1.53-1.08-3.54-.5-3.84.72.06-.22.89-.81,1-.24-.5,1-2.45.09-3.12-.24a12.09,12.09,0,0,1-3.6-.48c-1.19-.19-3.16.27-3.37-1,.65-.13,1.5.71,1.92,0-.16-.33.58-1.72-.72-1.92-.62.6.57,1.51-1,1.2.06-.34.4-.4.48-.72-1.14,0-1.44-.8-2.4-1-.06,1.16-1.28-.34-1.44.72-.7-.28-.8-2.08-1.68-1.44-1.11.17.37.8-.24,1H104c-.65-.47-.19-2-1-2.4,9.74-.45,17.71,2.94,25.45,5.28a9.57,9.57,0,0,0,.24-2.88c1.34.14,1.57-.83,2.16-1.44a17.1,17.1,0,0,0-4.8-1.44c-.73,1.2-4,.75-3.36-.72-.88.23-1.32-1.22-1.92-.48.53.27,1.32.28,1.44,1-1.41-.67-3.53-.64-5.28-1C117.31,34.31,116.41,33.59,116.27,34.1Zm28.33,3.12c.6.77,2.2.53,2.88,1.2-.13-1.18.32-1.77,1.21-1.92.09.41-.36.62,0,.72,0-.67.78-.66,1-1.2-.43,0-1.4.65-1.68,0a3.07,3.07,0,0,0,1.92-1.44C147.84,35.17,146.44,36.41,144.6,37.22ZM81,37c1.44-.29,2.85.81,3.6-.24C83.56,36.86,80.79,36.48,81,37Zm31.94,4.56c.63.89,3.31.48,4.33.24-.26-.89.59-.68.48-1.44-1.62.26-2.25-.47-3.6-.48C114.08,40.8,113.46,41.14,112.9,41.54Zm81.41,25.22c.25-1,1.66-.67,2.4-1.68,0,2.81-2.1,3.5-3.36,5,3.34-.06,5.73.84,8.41,1.44.74-3.59-.13-8.06.24-10.8-.06.18,0,.47-.24.48-.63-.32-3.45.91-4.81,1.44-5.29.88-10.59-.35-15.12-1.92-2.74-1-5.19-2.61-7.93-3.61-3.23-1.18-6.68-2.19-8.4-5h-2.41c.75-2.48-2.39-.93-4.56-.72.38-.94-.62-.5-.72-1a1.56,1.56,0,0,1,1.2-.24,1.29,1.29,0,0,0-1.2-1.44c.24.72-.53.42-1,.48a3.69,3.69,0,0,0-3.36-2.16c-.77,1.23-3.25,1.78-4.32.72-.47,0,.5,1-.73.72a17.73,17.73,0,0,1,1.21-4.32,37.33,37.33,0,0,0-5.29,0c.48-.51.19-1.6,0-2.17-2.31.16-3.87-1.61-5.28-1.68-2.58-.12-3.67,2.44-5.76,3.61-.32,0-1.74,0-1,.24h1.44c.1,1,.83,1.79,1.44,1,.21,1.62,2.2,1.48,2.64,2.88-1.74.13-1.89-1.31-3.6-1.2a2.64,2.64,0,0,1-2.88,1.68c-.69,3.58-7.3,1-8.89,2.88,1.26-.21,2.89.53,1.44,1,2.73-1.21,3.94,1.44,6.48,1-.38.94,3.32-.35,4.09.72-.48.69-1.5-.08-2.16,0,0,.93,2.79-.07,3.6.48.14.57-2.08,0-1.2.48,1.86.92,1.43-1.21,2.64,0-.28,0-.68,0-.72.24,1.22.09,1.6-.66,1,.48a2.73,2.73,0,0,1,2.16,0c-.1,0-.58.1-.48.24.77,1.1,4.38.78,5.76,1.44.38.86-.81.15-.72.72,1.43-.13,1.54-.27,1.44-1,.4.55.63.9,1.45.48.51,1.34,5.49.48,7.68,2.41-.28,0-.68,0-.72.24.64.13,1.5-.71,1.92,0,.11.66-1.31-.19-1.2.48,1,0,2,.54,1.92-.24,2.1.86,5.2.72,6.72,2.16-1,.23-1.91-.79-2.4-.24,1.61,1.26,4.62-.19,6.25,1.2-.23.25-.89.07-.72.72.78-.14,1.11.16,1.68.24,2.82,0,1.22-.11-.24-.48.72-.9,3.18.41,2.88,1.2.89.17,1-.41,1.92-.24,0,.35-1,.76,0,.72.83-.64,1.76.72,3.12-.48.18.74-.83.29-.48,1.2,1.26-.16.52-.89,1.2-1.44-.35-.13-1.24.28-1.2-.24.5.14,1.58-.3,1.68.24-.66.64.2.61.48,1a1.82,1.82,0,0,0-.72.48c.43,0,1.4.65,1.68,0-2.74.07,2.84-2.18.48-.48.65.14,1.5-.71,1.93,0-.81-.31-1.78.44-1.21.72.59-.78,4,.65,2.17-.48C186.15,66.64,191,67.76,194.31,66.76ZM64.39,42.27a1.61,1.61,0,0,0,1.2.24c-.07-.48.33-.48.48-.73C65.31,41.75,64.62,41.78,64.39,42.27Zm64.36,0c1-.47,1.11,1.1,1.68.24C130.06,42,129.13,41.52,128.75,42.27ZM228,96.82c-4.63-10.38-12-16.4-6.92-33.51.05.41,1.56-.84,1.59-1.43-2.52.53-4.2,3-6,4.22-2.36.06-5.47.07-6-1,4.2-1.48,7.8-5.83,12.91-6.41,0-.28,0-.68.24-.72,0,.38,0,.83.48.72,1-.62,1.63-2.85,1.44-3.84-1.17.1-1.85,1.73-2.88,1.2.64-1.51,2.1-2.54,2.4-3.12.76.27.55,0,1.44,0-.11-.76.35-.94.48-1.44-5.29,3.22-5.92,5.8-11.69,8.51,1.14-.2,2.68-1.39,3.36,0-3.68.49-6,3.61-9.85,3.12.93-.6,1.18-1.87,2.16-2.4a1.09,1.09,0,0,1-1-.48c2.25-3.67,7.3-3.85,11.29-5.29,2.84-2.36,3.41-4.63,6.9-6.34.75-2.61,8.34-7.18,8.83-9.25-.56.63-.64,1-1.68.72-.66,1.26-2,.54-3.5.94-4.06,1.3-8.54,3.9-10.09,4.6a74.48,74.48,0,0,0-8.74,6.51c-.79,1.45-3.15,4.28-4,5.7-1.44-.12-2.54,1-3.84,1.69.31,1.58-.45,1.71-.72,2.16,2.09,2,.63,7.66,0,10.56,1.2.75,2.49,1.41,3.62,2.24l.22.16c2.12,5.76,4.87,9.38,7.75,11.64S228,96.82,228,96.82ZM44.7,51.39h.48c0,.19.2.28.48.24.14-.42-.29-1.41.24-1.44,1.83.31,3.86-.54,6.25.48.25-.63,1.3-.45,1.92-.72a6,6,0,0,0-3.85-3.6c.83-.9-.86-.73-1-1.44.36,0,.89.08,1-.24-1.12-1.28-3.06.11-4.56,0m69.89,1.44c-.73.15-2.07-.31-2.4.24C113.87,46.2,115.21,46.65,115.55,46.11Zm-25.46,2.4c-1.61.16-3.84-.32-5,.24C86.65,48.59,88.88,49.07,90.09,48.51Zm-4.8,8.64c.21,1.31,1.38,1.66,2.4,2.17,1,1.33,2.52,3.4,3.84,3.6-1.12.13.29-1.28.48-1.44,3.61-3.07,10.81-6.69,15.37-8.89-.5-.25-1.28-.85-1.92-.24-.07.47.32.48.48.72-1.28.44-3.19.2-4.56.24,0-.32.42-.22.48-.48-1.16-.28-3.34.15-4.33,0,.25,0,.42-.24.48-.24-3.52.2-5.33,1.11-8.16,2.4-1.45-.43-4.71,1.13-5.29,2.16C84.66,57.56,84.87,57.1,85.29,57.15Zm-5.05-3.36c1.18-.43,2.33-.87,3.6-1.2-1.49-.8-3.63.5-5-.24C78.54,53.58,80.51,52.57,80.24,53.79Zm-4.08-.24c-.74.24-.93-1.28-1.44-.48C75,53.34,75.75,54.25,76.16,53.55ZM69,54.75c.77.3.18-.77,1-.48.49.31,1.21.39,1.2,1.2,0,.32-.42.22-.48.48.15.41.72.4,1,.72.05.19,0,.48.24.48-.21-1,.46-1.13.48-1.92-.41-.62-.56-1.22-1.2-.48v-1c-.92-.34-1.75.63-2.16,0,0-.15,0-.28-.24-.24C68.52,54.23,69.05,54.17,69,54.75Zm46.59-1.2c-.43.14-1.42-.29-1.44.24C114.42,54.21,115.63,54.67,115.55,53.55ZM124,55c-1.27.3-2.45-.73-3.36,0C121.85,54.74,123.45,56,124,55Zm4.56.72H130c.38-.85-.81-.14-.72-.72.14,0,.28-.19,0-.24C129.14,55.21,128.3,54.94,128.51,55.71Zm8.17,1.44c-.84.19-1.82-.72-2.4,0C135.27,56.82,136.13,57.84,136.68,57.15ZM83.12,60c.86-.21,1.44.69,1.69-.25-.86.14-.6-.85-1.45-.71C83.42,59.53,83.09,59.6,83.12,60ZM86.25,62c0,1.06,1.44,2.51,2.64,3.12-1-2-2.7-3.39-4.08-5C84,61,85.77,62.24,86.25,62Zm-2.89-3.37c-.89-.14-.93-1.15-2.16-1-.11,1.21,1.93.53,1.2,1.69C83,59.38,83.44,59.23,83.36,58.59Zm59.8.73c1-1.08,1.83.48,2.88-.24-.94.05-2.9-1.14-2.88-.49C144.68,58.72,142.37,59.23,143.16,59.32ZM71.6,61c.07-.8-.54-.91-.72-1.44C70.88,60.27,70.85,61,71.6,61Zm81.17.24c-.7-.36-2.23-1.13-3.12-.48C150.88,60.57,152,61.79,152.77,61.24Zm-1.92,1c-2.32-.81-1.74.69,0,0Zm6,.72c.27-1-2.64-1.06-2.16-.72C155.73,62.11,156,62.78,156.85,62.92Zm5.52,2.64c-3.45-.87-7.37-2.56-10.8-2.64C155,63.77,158.82,65.59,162.37,65.56Zm3.85-.48c-.81.23-1.64-.74-2.17,0C164.8,64.89,166.55,65.73,166.22,65.08Zm1.92.72a1.93,1.93,0,0,0-1.44-.48C166.4,66.12,169.07,65.89,168.14,65.8Zm-1.2.72c-1.21.08-2.67-.85-3.37-.48C164.3,66.44,166,67.17,166.94,66.52ZM168.86,68c.81-.15,2.23.31,2.64-.24-.7-.78-1.37-.11-2.4-.48A1.17,1.17,0,0,1,168.86,68Zm9.6,7.44c.45-1.1-1.3-1.24-1.68-.72C177.85,74.42,177.75,75.32,178.46,75.4Zm16.81,4.09c1.88.63,3.93-.31,4.09-2.16-.43,0-1.4-.65-1.69,0,.7.33-.4.84-1,.72-.79-.25-.81-1.28-1-2.17-1.41.05-2.48-1.51-3.84-.72,1.52.42,2.76,2.07,3.84,2.17C195.44,77.72,196,79,195.27,79.49Zm-25.69-1.44c-2.36.19-3.41-2.2-5.76-1.2C165.73,76.88,166.94,79,169.58,78.05Zm-7,0c-.83.09-1.31-1.4-2.16-.48C161.1,77.65,162.12,78.6,162.61,78.05Zm-12.48,7.2c2.58,2.3,4.05,5.71,7.44,7.2,0,.66-.4.49,0,1,.81-.38,1,1,1.44.25-1.4-3.09-1.86-11.17-2.88-13.21-3.17-.48-5.54.67-7.92,2.16.7.75,1.55,2.49,2.16,1.92C150.35,84.84,150.06,84.86,150.13,85.25ZM146.76,85a1.68,1.68,0,0,0-1-1.44C145.59,84.59,146.2,84.78,146.76,85Zm1,2.4c.74.58,2,1.2,1.68,2.16,1.63,0,1.42,2.72,2.88,2.16-.13.87.88,1.83,1.44,1.2-2.73-2.07-4.41-5.19-6.73-7.68C147,87,148.12,85.91,147.73,87.41ZM160.93,92c-.51-.29-.33-2.53-.72-2.16C160.11,90.73,160.58,92.31,160.93,92ZM95.37,107.1c.19-.83-.22-1-.72-1.2,0,.95.6,1.33,1,1.92.17-.64,1.3-1.56.72-2.16,0,.29-.26.15-.48,0C95.38,105.83,95.91,107,95.37,107.1Zm-3.6-1c-.8.78-1.09-.07-2.16-.24-.28,1.33-2.72.48-4.09.72,0,.19,0,.48-.23.48,1.48,2.36,2,5.7,5.28,6.25,1.35-1.13,3.94-2.22,2.64-4.57-.41-.09-.62.36-.72,0C93.3,107.81,91.91,107,91.77,106.14ZM82.4,108.3c.12-.75-.6-.67-1-1C81.53,107.9,81.6,108.47,82.4,108.3Z"/><path class="cls-1" d="M16.84,65.32c-.28,1,1.85,2.5,1.93,4.56-.56.08-1,.47-1.45,0,.14.66.6,1,.73,1.68-2.66-.39-5.29-4.35-7.06-5.62-1.26-.27-2.69-.35-3.36-1.2H10c-.73-.47-2-.39-2.89-.72.08-.33.61-.2,1-.24-.2-1-1.48-.93-2.17-1.44-.08-1.58.6-4.5-1.2-4.81.34-.32,1.19-.51,1.44-.24-.07-1.48,2-3.18,2.65-1.68.25.9-.81.47-1,1,2.92,1.08,9.57,2,11.38,4.19.35-.11-.1-.31,0-.72,1.2-.09,1.56.68,1.92,1.44a17.62,17.62,0,0,1,7.69,7.11c.62,1.38-.42,4-1.92,4.32-.67.12-.13.49-1.45.09-2.56-.77-4.77-1.39-5.52-3.6H19c.32-1,.88-.18.24-1.2,1.2-.11,3.55,1.36,5.52.48-1-1-1.62-2.54-3.6-2.64,0,.82.12,1.72-.48,1.92a19.78,19.78,0,0,0-2.64-3.84c-.52.67-4.15-1.13-5.86-1.06C13.08,63.05,16.32,66.53,16.84,65.32Z"/><path class="cls-1" d="M141,60.76c-2.28-.45-4.63-2.09-7.2-1.44.07-1.75,3.82-.69,4.8.47C139.45,59.25,141.84,59.55,141,60.76Z"/><path class="cls-1" d="M112.9,87.17c-.67-.1.61.9-.24,1-1.11-1.22-1.09,0-2.88-.24.21.35.19.93,1,.72-4.2,1.33-9.92,3.49-14.41,1h1.92c-.17-.54-1.34-.09-1.92-.24.55-.89,2.11-.77,2.88-1.44,0-.81-1.11-.49-1.44-1,6.11-.14,11-1.68,16.1-2.88.18-.85,2.07-1.66,3.84-1.68,1.87-2,5.08-2.6,7.44-4.08,1.13.67,1,1.12,2.64,1.2,0-1.2-.62-.79-1.44-.72,0-.28,0-.43-.24-.48,1.74-2,5.18-2.19,7.45-3.61,1.15,2.12-3.08.92-2.65,3.13-.67.2-1.48.27-2.16.48-.64,3.44-5,3.11-6.72,5.52h-1.92c0-.34,0-.68-.24-.72.53-.44,1.19-.74,1.44-1.44-1.51-.23-1.5,1.06-2.64,1.2.5.21.77.66,1.2,1-.47.38-2,.57-2.16,1.92-2.36-.28-2.91,1.26-4.33,1.92C113.17,87.59,113.91,86.64,112.9,87.17Zm-3.6-.48c.28.76-.37.58-.48,1,1.42.13,1.06-1.51,2.88-1,.16-.48.83-1,0-1.2C111.46,86.45,110.38,86.57,109.3,86.69Z"/><path class="cls-1" d="M93.45,36.5c2.08-.56,5.2-.08,7.69-.24-.06.42-.42.55-1,.48.23,1,2.35.06,2.65,1-1.09.41-3.68,1.15-5-.48h1.68c-.94-1.11-3.09-.69-3.12,1-1.12-.59-2.88-1.18-3.6.24-1.46,0-2.16-.72-3.12-1.2,1.89-.47,3.47,0,5.76-.24C95.16,36.39,93.7,37.05,93.45,36.5Z"/><path class="cls-1" d="M216.11,52.67a91.3,91.3,0,0,1,9-6.34,40.42,40.42,0,0,1,9-3l-5.51,2.84s1.34-.34-2,1-5.5,3.5-7.17,4.17Z"/><path class="cls-1" d="M31.56,54.92c-.89.91-.6,4-2.11,3.65.65-.89,1.59-2.87,1-3.84.26-.5.81-.73,1-1.34-1.47-3.3-6-2.5-8.78-.41,0,0-.31,2.55-.51,5,1.26.79,1.69,2.35,3.17,2.92-.82.17.86.55,1.18.38C30.32,62.43,32.52,58.9,31.56,54.92Zm-4.13,5.15a4.07,4.07,0,0,1-2.78-.7,4.12,4.12,0,0,1-1-4.08c.4-1.59,2.83-2.49,2.83-2.49a1.84,1.84,0,0,0-.36.64,1.11,1.11,0,0,1,.52-.17,3.41,3.41,0,0,1,1.57.17c.39.14.45-.08.83.31a3.1,3.1,0,0,1,.56.86,1.27,1.27,0,0,0-.45-.44c-.25-.11-.13-.11-.44-.09a3.44,3.44,0,0,1-.78,0,1.3,1.3,0,0,0-.46,0c-.48,0-.47-.07-.75.08s-.37.08-.68.25a.47.47,0,0,1-.24.07c-.4.75-1.55,1.19-1.48,2.31C24.5,59.37,27.43,60.07,27.43,60.07ZM29.1,56.7c-.46.51-.6,0-1.1-.18s-.14-.75,0-1.24,1.19-.14,1.61.27S29.56,56.2,29.1,56.7Z"/></g></g></svg>