<svg xmlns="http://www.w3.org/2000/svg" viewBox="0 0 20 20"><defs><style>.cls-1{fill:none;}.cls-2{fill:#fff;}</style></defs><g id="Layer_2" data-name="Layer 2"><g id="Design"><rect class="cls-1" width="20" height="20"/><path class="cls-2" d="M19.27,9.05a.73.73,0,0,1-.73-.74V1.46H11.69a.73.73,0,1,1,0-1.46h7.58A.73.73,0,0,1,20,.73V8.31A.74.74,0,0,1,19.27,9.05Z"/><path class="cls-2" d="M15.9,20H.73A.73.73,0,0,1,0,19.27V4.1a.73.73,0,0,1,.73-.73H7.47a.73.73,0,0,1,0,1.46h-6V18.54H15.17v-6a.73.73,0,0,1,1.46,0v6.74A.73.73,0,0,1,15.9,20Z"/><path class="cls-2" d="M9.16,11.57a.73.73,0,0,1-.52-.21.72.72,0,0,1,0-1l9.27-9.27a.73.73,0,1,1,1,1L9.68,11.36A.75.75,0,0,1,9.16,11.57Z"/></g></g></svg>
