<svg xmlns="http://www.w3.org/2000/svg" viewBox="0 0 191.05 180"><defs><style>.cls-1{fill:#e3c791;fill-rule:evenodd;}</style></defs><g id="Layer_2" data-name="Layer 2"><g id="Design"><path class="cls-1" d="M1.39,9.22a15.89,15.89,0,0,1,1,1.35C1.72,10.7,1.5,10,1.39,9.22Z"/><path class="cls-1" d="M2.51,11c.61.32.53,1.77.86,2.53a2.4,2.4,0,0,1-1.45-2.15C2.29,11.54,2.51,11.48,2.51,11Z"/><path class="cls-1" d="M3.48,14c.81-.05.56.93.32,1.29C3.14,15.19,3.64,14.33,3.48,14Z"/><path class="cls-1" d="M148.92,31.07c2.32-.89,5,0,6.57.66C153.17,31.73,151.15,31.23,148.92,31.07Z"/><path class="cls-1" d="M131.41,40.7c.11-.37.15-.77.7-.86-.1.21-.19.67.16.64C132.37,41,131.56,40.73,131.41,40.7Z"/><path class="cls-1" d="M123.8,171.88c0,1-2.06.71-2.91,1.18C121.11,172.22,122.78,172.24,123.8,171.88Z"/><path class="cls-1" d="M54.11,10.51l1.72-.42c2,2.18,5.3,2.15,7.27,4.37.27-.33.27-.82.91-.92a1.45,1.45,0,0,1,.49,1,4.84,4.84,0,0,0,2.53,1c2.33,2.31,5.41,3.38,8.61,4.26,4.89,3.55,10.79,5.41,16.36,7.82.36.65-.63.48-.43,1,.92.06.26-.82,1.19-.76a.59.59,0,0,0,.75.27c.22.5-.28.57,0,1.14.93.06.27-.82,1.19-.76,1.84,1.71,4.87,1.45,6.73,3.13.76.1,0-.74.75-.64.26,1.39,2.17.06,2.42,1.45,1.82-1.44,2.81.53,4.42-.64.82-.24.12.16.38.6,2.37-1.13,5.32.25,7.91-1.29a3.74,3.74,0,0,0,1,.43c8.35-1.32,15.75-2,23-1.16,1.64-.41,3.84-1.13,4.9.38.36-.38,1.84-.57,2.1.17-.6.08-1.52.7-1.46-.33-.31.18,0,.72-.75.65-12.51-.79-27.12,1.55-40.12,2.43.28.45,1.23-.21,1.77-.21.15.33-.11.42,0,.7,2.16-.19,3,1.13,4.3,1.67,2.48-.66,3.85.53,5.71.87.4,0,.4-.31.17-.27,0-.39,1.16-.13,1.07.65,1.31.61,4.11.22,4.31,1.67.87-.78,3.3-.36,3.12.6,1.07-.57,2,.45,3.18-.11-.27.8-.41.61-.33,1.46,1.27-.47.44-.41,1.57-1.08.61.36-.24.64-.44,1,1.44.4,3.55.93,4.26.54.11-.73.71.08.32.38,1.68.48,5.54.33,7.59,1.08,1.25.08.55-1,1.57-1.08a3.88,3.88,0,0,1-.7.87,233,233,0,0,0,30.1,1.43c-2.13,1-6.35.44-8.89.15a184.4,184.4,0,0,1-60.57-9c-.06-.21-.11-.43-.16-.64A17.4,17.4,0,0,1,98.84,33a32.67,32.67,0,0,1-11.69-1.9A143.57,143.57,0,0,1,56.47,20.91c-5.87-1.81-10.95-4.95-17.28-6a45.2,45.2,0,0,1-8.89.15c-5.43.71-10.61,1-15.73,1.17-2.11,3.24,2.65,5.7,3.71,8.46.1.24.44.08.7.05,3.73,5.17,9.8,8.08,13.72,11.92.87-.13,1.16.72,2,.65-.1.6,1,.92.06,1.13.52.51.61.06,1.34-.11C49,49.36,64.42,56,82,59.17a7.31,7.31,0,0,1-5.82,1.45c-5.6-.85-11.85-3.51-16.58-5-.68.26-.38,1.11-1.29,1.23-3.71-.85-6.89-3-10.18-5-2.11-1.29-4-3-6.08-4.2C40.2,46.52,37.92,46,35.92,45c-2.63-1.32-5.31-2.55-7.85-4-.27-.15-.45-.82-.7-1-.95-.54-1.83-.92-2.64-1.4-1.84-1.09-3.73-2.19-5.6-3.18l-.21-.86a6.46,6.46,0,0,1-3.61-3.45c-.19-.55-.29.38-.86.21-1-2.32-3.48-3.75-4.14-5.6-2.16-1.37-2.45-4.72-4-7.71A59.71,59.71,0,0,1,1.44,4.86c-.38.56.37,1.81.43,2.64-1.43-.54.32,1-.64,1.08C1.13,6.35-.95,3.74.53,2.11,1.24,2.55,2.31,1.48,3,.82,9.58-.74,15.64.31,21.27.84,23.38,1,25.69.72,27,1c.47.1.88.75,1.34.81s.88-.42,1.3-.32c1.08.25,1.09.66,2.69.7.72,0,1.19.76,1.83.92.47.12,1.08-.25,1.56-.16,1.3.23,2.57,1.16,3.82,1.56s2.55.14,3.29,1.25c1.71-.86,2.57,1.11,3.55.48C46.24,7.09,49,7.32,50.5,8c.13.06,0,.59.16.65C51.89,9.2,53.82,9.25,54.11,10.51ZM89.85,30c-2.9-2.19-7.07-2.25-9.69-4.91-.63.32-.38.26-1.08.27C60.08,16.51,38.94,4.8,15,3.1c-3.45-.25-8.7,0-11.79,1.33,2,13.28,9,20.8,15.7,27.21.63-.09,2.34,1.43,2.58,2.11,1.08-.47,2.36,1.35,3.61,1.62-1.5-1.84-4.19-3.14-4.95-5.18-.21-.26-.84.18-1-.21-2-3-5.9-5.8-6.4-9.17.13.91.92.7.91,1.83a96.7,96.7,0,0,0,9.68,10.41c2.46.69,4.2,4.19,6.52,4.1a55.12,55.12,0,0,1-10.12-8.47C16.85,25.56,13.19,20.9,13,16.4c-2.67.67-.5,3.3-.92,4.57-2.67-4.13,1.09-6.88,5.5-7.31,2.86,1.48,6.25-.7,9.8-1.07,6.31-.66,12.85-.44,17.34,1.63,4.56.95,8.45,3,12.28,5.18,2.82,1,5.88,1.59,8.18,3.46,2.45-.41,3.22,1.95,5.81,1.3a5.54,5.54,0,0,0,3.13,1.51c-.23.1-.28.32-.33.54a1.87,1.87,0,0,1,2.48.75c.39,0,.92-.87,1.29-.32-.15.09-.42.11-.38.32,1.13,0,2.16.07,2.59,1.19,1-.08,1.34-.48,2-.27a.62.62,0,0,0-.54.6c1.38-.71,2.8.93,2.26-.11A19.9,19.9,0,0,0,89.85,30ZM32.43,39.25c-.37-.7-2.38-1.6-2.15-1.29C31,38.42,31.45,39.25,32.43,39.25Zm87.94-1.53a6.73,6.73,0,0,1-2.15-.38c0,.42.36.42.43.81C119.33,37.66,120.18,38.41,120.37,37.72Zm5.23,1.68c.15-.09.42-.11.37-.32-.31.62-2.24.37-1.67.64C125.11,39.59,126.8,40.44,125.6,39.4Z"/><path class="cls-1" d="M4.34,15.58A13.1,13.1,0,0,1,6.11,19C5.55,18.21,4.16,17.78,4.34,15.58Z"/><path class="cls-1" d="M5.52,19.41c.48-.09.6.42.7,1,.54-.05-.36-.95.49-.81.07,1,1.31,1.85-.17,2.1C6.53,20.37,5.65,20.51,5.52,19.41Z"/><path class="cls-1" d="M74.05,47.42c.51,1.44,2.25,2.2,3.5,3,3.21,2.12,6.69,3.84,10,6,.8-.3,1.12.17,1.67.27.55-.42-1.09-.39-.48-1a6.1,6.1,0,0,1,2.91-.27,42.65,42.65,0,0,0-4.95-8.83c.42-.78.95.84,1.56.75.63-1-1.44-1.63-.85-2.53,1.21.62,2,2.83,3.17,2.64-.49.85.59.81.64,1.67,3.53,3.38,6.58,7.54,10.71,9.92a1.45,1.45,0,0,0-1.13,0c1,1.08,1.74.23,1.35-1,.39.16.62.59,1.24.38-.62,1.28-2.79,1.62-3.13,3.07-.6-.53-1.57-.44-2.75,0-1.66-2.11-6.32.76-8.24-.92-.74.35-.68,1.17-2,1.18a17.85,17.85,0,0,0-1-2.26c-.95-.08-.57.64-1.19.75-1.86-2.88-5.57-2.72-7.53-5.44a2,2,0,0,1-2.37-1.24,10.34,10.34,0,0,1-2.58-2.11c-3.11-1.34-5.14-4.45-8.29-5.71-1.79-2.41-4.69-3-6.24-5.77-1.52-.82-3.11-1.54-3.87-3.62-.26,0-.38.15-.38.33-3.31-3.86-8-7.74-11.3-12.29,1.73.39,2.8,1.82,4.14,2.86,6,4.61,12.09,9.46,18.3,13.75.07.39.38.39.43.8.85.59,1.89,1,3,1.79C70.1,45,72.61,47.91,74.05,47.42Z"/><path class="cls-1" d="M100.22,48.69c-.36-.2-.44-.88-.59-1.46,1,.47,1.59,1.63,2.42,2.38.63-.06-.74-.67,0-.92,2.54.35,3.63,3.12,6.14,3.51,2.79,3.58,6.51,5.62,10.17,7.76.28-.14,0-.58,0-.91.7-.25.5,1,1.45.32-1.87-4.81-6.68-7.36-9.35-11.85a73.39,73.39,0,0,1,9.2,5.71,8.53,8.53,0,0,0,1.4-.8c0-1.2-.69-1.29-1-2,.46-2.51,3.17-.9,4.31-.16,11.29-4.74,21.54,1.38,28.7,7.73.7.62,1,2.13,1.93,3.18.25.28.86.37,1.08.65.53.68-.15,1.56,1.4,1.94.82.2.55,4,2,4.31-.32.06-.62.11-.6.37,0,.87,1.1,0,1.13.87,8.56-2.46,12.16,3.34,15.45,9.65,2.92,3.87,5,10.41,6,16.6,5.31,2.83,10.36,11.14,9.51,18-.87.62-2.35,4.68-4.42,3.39-1,2.71-4.59,2.23-7.32,1.82A43.69,43.69,0,0,1,160.58,111c-.59.32-.63,1-1.56,1.08,1.53,1.78,1.72,5.53,1.5,7.86-1-.78-.71-2.78-1.34-4.47-3.71-.33-7.3-.85-10.88-1.41a63.79,63.79,0,0,1,8.77,9.49,3,3,0,0,1,4.36-1.77c0,1.25-1.16,1.86-.75,3.39.17.29.25-.16.64-.16-.77.68.42,1.72,1.29,1.51.13.38-.15.52,0,.91,3.26,3.06,6.61,7.1,11.14,7.07,3.81-1.87,7.17-3.16,8.52-6.24-.78-2.86-1.18-6.37-2.85-7.76a7.56,7.56,0,0,1,6.19,1.89c.29.5.48-.54,1-.48,1.41,1.27,2.2,1.85,2.52,4.63-2.18,3.45-4.32,6.93-7.92,9.53,1.6,4.18,3.19,10.11.42,12.71-.82-.26-.79-1.95-2.16-1.3-.14-.57-.28-1.15-.43-1.72.33,4.71-5.6,5.67-5.71,10.12-3.06,2.19-5.23,4.91-9.65,6.29-.42-.12-.64-.56-.91-.92-3.31-.07-6,2.32-9,3.39-7.33,2.65-15.06,2.48-21.44,2.13-3.83,4.66-10.4,5.42-18,7.68,1.35.2,3.39-.76,5-1,.74-.35.87.18.05.22-4.32,1.67-8.84,2.08-13.63,3.16,0,2,1.66,1.31,2,2.7a2.45,2.45,0,0,1-3.29-.33c-1.34,1.09-3.61-.94-5.17-1.46-3.35,1.12-5.32-.09-7.86-.33-1.08-.89-1.12-2.25-1.83-2.75-.11-.56.72-.54.92-.91-.08-.48-.35-.64-.81-.49a3.49,3.49,0,0,0,.54-2.42,9.37,9.37,0,0,1,2.53-.86c-4.31-2.57-8.43-7.1-12.86-8.47-.2-.9-2.16-.92-2.63-2.32.33-.14.42.12.7.06-3.27-2.38-7.4-3.34-10.61-5.83-.62.32-.37.26-1.08.27a.23.23,0,0,1,.44-.11c-.63-1.3-3.39-1.68-4.31-3.5,1.55.46,2.29,2.29,4.2,2.16-.45-.51-1.77-.72-1.51-1.46,1,1,1.46-.66,2.37.33-.19.87-.69-.24-1.13,0,.74,2.09,2.31-.31,3,1.08-.34.54-.56.2-.92,0,.08,1.19,1.42.28,1.67,1.19.6-.64-.8-.47-.75-1.19,1.41.19,2.34,1.18,3.76,1.35.42.62-.2.61-.21,1,.44.81.87-.25,1.77-.21,0,.86.8.5,1,1.13,5.15.88,8.65,4.5,14.22,4.7.05.21.1.43.16.64,5.5,1,9.82,4,16,3.79.73,1,2.34.59,2.48,2.59a1.09,1.09,0,0,0-.49.8c-1.69.49-4.17,1.29-5.06.81a57.44,57.44,0,0,0-11.58-4.22c2,2.7,6,4.84,8.23,8.25,8.2-.81,19.75-4.46,29.25-6.59-1.24-.78-3-.71-3.93-2-.36,0-.32.3-.59.38-.48.43.28,1.33.43,1.72-.72-.13-1.82.18-1.56-.75l-2.15.53c-.34-.77-1.29-2.11-1-3-4.19-.75-8-2.22-12.33-2.65,0-.22-.11-.43-.16-.65-9-1.23-17.09-4.07-26.06-5.41-2.61-1.86-6.78-1.11-9.26-3.19A47.79,47.79,0,0,0,79,152.61,39.89,39.89,0,0,0,72.6,151c2-1.15,4.07.35,6.52-.47,1,1.06,3.25.08,4.36,1a20.25,20.25,0,0,1,8,.76c7.94.5,14.91,2.62,22.78,3.26a1,1,0,0,1,.37.59c3.44-.34,6,.79,8.51,2a13.69,13.69,0,0,0-3-1.78c4.6-1.42,10.5-.86,15.35-2.68.14-1.13-.94-3,.27-3.5.78.27.42,1.08,1.78.7.09.49-.89.32-1.24.54,1.52-.42,3.48-.07,4-.53.78.33.8,1.92,2.16,1.29.17.35-.07.45-.33.54,1.92.38,4.89.93,5.87-1.23-2.13-.47-3.78-2.83-4.24-5.12-2.75-.8-7.74,1.15-10.29,1-.25.1-.09.44-.06.71-1.68-.3-4.06,1.71-6,.8-.34-1.65-.43-3-1.29-4.26,2.58-1,5.28.35,7.21,1.41,3.65-1.53,7.55-2.91,8.3-6.19,1.5-.35,1.66,1.51,3.4.76,1.44,1.63,2.79,3,3.06,5.87-.73,0-.77.4-1,.7,3,.71,8.21-.82,9.48-3.27-3.76-.56-4.71-5.78-7-8.79-.39.2-.43.6-1,.7-.92-.21-1.87-.34-2.37-1.24-1.6-.29-3.33-.35-4.63-1.14a11.57,11.57,0,0,0,3.55-.42c-1.08-.65-1.89-1.35-2.74-.92-.22-.44.2-.49.54-.59-.14-.28-.59-.05-.92,0,.35-.77,2.75-.27,4.31-1.08-.37-2.23-1.94-2.45-2.63-4.15.8-.47.72.37,1.07.65,2,1.62,4.34,3,6.41,4.58a106.44,106.44,0,0,1,8.44,10c.56-2.78-.1-7.26-1.5-10.61.06,1.66,1.27,5.17,1.13,7.27-1.17-3.33-1.64-9.16-3.71-12.12a2.23,2.23,0,0,0-.32-.38c-3.89-3-6.74-8.27-9.79-12.66-4.32-1.25-8.46-2.78-12.7-4.16-1.64,2.3-3.28,5.43-7,5.86-2.75.32-5.26-1.08-7.21-2.32-.8,1.29-.5,3.24-.87,4.79.4,2.57-.26-.83-.75-1.18,0-.31.29-.44.27-.76a13,13,0,0,1-1.51-4.2,6.87,6.87,0,0,1,4-2.15c1.82,1.12,2.89,3.51,5,4.26,3-.63,4.84-3.32,5.76-5.33-1-1.23-3.9-1-4.09-2.64a55.21,55.21,0,0,0-11.69,3.6c-3.59,1.49-6.25,4.22-9.53,2.14-2.78-3.1-6.91-4-9.74-7-6.29,1.72-11.08,5.31-16.33,7,5.23-4.18,11.29-7.87,17-11.77,7.91-3.36,13,.46,20.36-1A232.86,232.86,0,0,1,96,85.9l-1.93.48c-1.09-1.11-1.21-1.11-2.8-1.13-.28.61,1,.57,1.07,1.56-4.69,1.15-9.76,2.72-13,2.79.1-.55,1.33-.42,1.88-.7-1.15-.53-3.8,1.44-4.68.48,3.42-1.55,6.8-2,9.8-3.81.25-.34.12-.91.38-1.24.73.8.63-.26,1.24-.54,1.55,1.18,5.08-.93,6.51.44l2.37-.59c15,2.84,26.42,12.65,45.29,7.26-.5-.39-1.3-.29-1.62-1,.52-1.11-.72-1.41-.59-2.37a36.23,36.23,0,0,0,15.89-2.36c0-.78-.75-.16-1.18-.16.57-.92-.12-.32-.49-1,4.82-3.4,0-12.21-2.4-16.11-3.44.31-5.73-1-8.78-.33.13-1.12-2.29-.4-2.69-1.62-3.23-.22-5.15-2.6-8-3.51,0-.54-.51-.37-.48-1-3.72-1.54-6.57-4.51-9.26-7.76-.1.2-1.08.78-1.29.32,1.43,1.38,4.37,2.89,5.86,5.17-.17,2-2.06,2.91-2.21,4.9-.53,0-1-.16-1.13-.86-.59,1-1,.23-1.67-.27-.48.74-3.32,2.18-4.09,1-.68.14-.45.83-1.4.8-2.85-3.2-5.75-7.52-8.93-9.21-.14,1-.64,2.24-.92,3.66a3.27,3.27,0,0,1-1.18-2c-.89,0-.12,1-1.14,1a34.34,34.34,0,0,0-5.32-8.51c0-.25.39-.25.32-.54a12.11,12.11,0,0,1-2-2.7C98.82,46.34,99.06,48.28,100.22,48.69ZM147.49,63c-4.37-4.42-11.46-7.55-16.74-8.42A49.72,49.72,0,0,0,147.49,63Zm-5.28,1.77c.83-.29-1.62-1.66-2-.86A3.24,3.24,0,0,1,142.21,64.78Zm5.38,1.41a1.65,1.65,0,0,0-1.77-.71A2.29,2.29,0,0,0,147.59,66.19Zm.49.1c.42-.05.42-.36.81-.43a1.06,1.06,0,0,1-.06.7c.41-.2,1.28-.84.92,0,.48-.07.64-.34.48-.8-.83.16-2.22-.34-2.53-.06C148.18,65.71,148.24,65.92,148.08,66.29ZM111.16,93.56c3.16,1.76,8.6,4.88,11.74,4.86,2.45,0,5.06-1,7.54-1,3.29.09,7.29,0,11.15-.26.72-1.17,2.13-1.43,3.29-3.34-8,3.54-16.66,1.62-23.32.09-.06-.22-.11-.43-.16-.65C112.76,92,106,86,97.49,85.52,101.73,87.93,106.73,91.09,111.16,93.56Zm49.45-10c-.44.29-1.14.41-1.13,1,1.64-1.58,4.59-3.46,5-.32.17,1.42-1.5,2.15-2.1,3.5a29.15,29.15,0,0,1-12.39,4.46c-1.78.14-3.95-.75-4.85.74,8.06-.9,11,6.68,20.68,3.1.44-.9,2.28-1,3.28-1.51.11-1.34,1.82-1.72,2.81-2.53A12.7,12.7,0,0,1,178,93.63c-.21-1.5-.91-2.15-1.13-3.61-3.46-6.06-6.19-13.43-11.46-16.6a6.26,6.26,0,0,0-5.22-.76C162.14,75.92,160,79.87,160.61,83.54Zm-51.78,22.73c-.08,0-.28.37-.1.48,3.46,2.21,7.22-2,11.69-3.59-3.86-1.74-9.43-.57-14.65,0-3.1.33-6.12-1.33-8.73-.12C101.23,104.18,105.4,104.77,108.83,106.27ZM145.36,95.8c1-.6,1.7.82,2.26-.1-1,.09-1.08-1.25-2.1-1.08C145.69,95.15,145.35,95.37,145.36,95.8Zm-17.73,5.1c-.91-.3-2.52.55-3.71.7s-3.31.44-3.77.48C122.05,103.75,124.47,101.11,127.63,100.9Zm23.05,4.33c.89-1,3.88.68,3.12-.32-1.55-4-3.06-6.7-5.75-8.4.34.8-.51,1-.48.8-.38,3,2.55,7.38.25,9.32.61,1.23,1.16,2.54,2.32,2.86-.94.17-1.18.75-1.78,1.13,2.42-.07,4,1.27,6.95.33-1.17-3-3.53-4.09-5.71-5.45.93.13.31-.67.7-.86A1,1,0,0,0,150.68,105.23Zm-13.62-4.16c-1.6.32-3.5-.47-4.9.54C133.67,101.66,136,103,137.06,101.07Zm2.42,1.46c1.19-.32,2.66-.48,3.13-1.24a1.22,1.22,0,0,0-1.51-.54C141.14,101.69,139.69,101.74,139.48,102.53ZM133,104.84c-1.55.44-3-.87-4.14-.11C130.23,104.41,132.35,106.73,133,104.84Zm22.84,1.64c-1.16-2.35-2-5.15-3.55-6.9C153.8,101.68,153.84,105.72,155.8,106.48Zm16.32-8.87c-3.16,1.48-7.28,4.6-11.42,3.76-2.34.64-3.77-.24-5.76-.17,1.71,2.75,1.58,8.54,4.57,9.16-.13-1.32-1.47-.6-1.46-2.16,7.86,3.91,15.32,8.45,27.09,5.84.43-.16,0-.85.43-1a1,1,0,0,0,1.24.38c2.24-4.85-2.91-10.7-6-13.15a1.29,1.29,0,0,1-.32,1.46c-.74-.07-.5.1-1.3.32,0-1.35-1.15-.75-2.15-1.3,1.59-.2,1.16-1.62,1.67-2.47-2.15-.39-3.74-1.71-5.81-2.21C172.41,96.44,172.75,97.31,172.12,97.61Zm-36.9,9c3.6.63,6.56,2.3,10.29,2.71-.66-1.26-1-3.09-1.88-3.88C140.76,106.27,136.65,104.17,135.22,106.56Zm-14.71,6.18c-.8,0-.65-1.55-1.66-1.18C119.17,112.15,120.2,113.15,120.51,112.74ZM148.2,110l-.65.16c-.42-2-1.46-3-1.93-5-1.28,1.31.28,2.88.69,4.63C147.05,109.46,147.71,110.85,148.2,110ZM160.07,142c3.56,3.29,7.15,9.54,13.29,6.53.18,0,.3.12.33.38,2.46-1,2.78-3.13,3.93-4.41a1.79,1.79,0,0,0,.75,1.18c-.45-1.39.28-.59.65-.16-.72-2.45-1.81-4.3-2.42-6.95-9.75,3.24-12.68-3.87-17.6-9.12C160.34,132.77,162.35,139.29,160.07,142ZM82.28,161.39a29.26,29.26,0,0,1,8.18,6.2,1,1,0,0,0,.6-.38c0,.31-.21.49,0,.92,2.22,1.27,4.65,2.21,6,4.9.62-.21.79.33,1.4.11C93.66,168.66,87.77,162.72,82.28,161.39Zm91.36-22.74c-2.54-.06-1.56,1,0,0Zm-21.12,12.58c-.72,1-.7,2.36-1.94,3.22s-3.39.68-5.07,1.72c4.09,1.39,10.65,2.5,14.87,0a3.65,3.65,0,0,1,1.93,1.35A17.18,17.18,0,0,0,171,152.8c-6.44,1.17-9.29-3.63-12.33-8.14a1,1,0,0,1-.69,0A16,16,0,0,1,152.52,151.23Zm-24.24,9.23c-.36.46-.12,1.28-.76,1.56,7.19-.27,13.6.75,21.38-.51,2-.35,1.33-.73-.27-.16-.07-.59-1.16.5-1-.44-3,.47-5.63-.87-7.76-.81.16-.09.43-.11.38-.32a28.4,28.4,0,0,1-5.27-1.89c-2.34.86-7.29.68-8.51.74C126.92,159.47,127.42,160.27,128.28,160.46Zm29.94-1c-2.26.71-5.24,1-7.06,2C153.53,160.34,156.8,160.92,158.22,159.42Z"/><path class="cls-1" d="M112,76c.15.57.23,1.25.59,1.46,4.15,2.14,7.38,5.8,12.22,6.79,3.07.07,5.7.89,9.05.5.19.89,1,.72,1.13,1.78-3,.84-7.37,2.32-10.83,2.46-6.33.27-10.37-3.86-13.78-6.64-4.53.53-7-2.4-10.66-3.29-6.65-4.78-13.34-9.5-20-14.24-.24-.82.16-.12.6-.37a2.17,2.17,0,0,0-1.78-.71c.07-1.1-.31-.49-.59-1.45.47-1.25,1.77-1.87,3.55-1.34,3,.87,8.42,5.38,10.23,5.23.34,0,0,.19.11.43C98.2,70.33,104,75,112,76Z"/><path class="cls-1" d="M155.8,43.09c.4-.93,1.15.1,1.78-.21C157.4,43.46,156.27,43.06,155.8,43.09Z"/><path class="cls-1" d="M176.38,43.92c-1,1.15-3,0,0,0Z"/><path class="cls-1" d="M106.83,62.37c.53-.16.75.18,1.19.17a4.9,4.9,0,0,0,1,2.05c1-.48,1.42-1.35,2-2.1,3.67-1.15,3.72,2.33,4.89,4-.22,1-1.09,1.66-1.13,2.8-3,2.42-8.28,3.18-9.48-.39-.36-1.07.45-2.41-.69-3.71.94-.45,1.46-.2,1.72.48A17,17,0,0,1,106.83,62.37Zm4,3.35c1.13-.21.64-1.76-.38-1.51C110.62,64.71,110.74,65.21,110.87,65.72Z"/></g></g></svg>
