<svg xmlns="http://www.w3.org/2000/svg" viewBox="0 0 150 146.25"><defs><style>.cls-1{fill:#c70606;}</style></defs><g id="Layer_2" data-name="Layer 2"><g id="Layer_1-2" data-name="Layer 1"><path class="cls-1" d="M75,0a1.78,1.78,0,0,1,.61.11l4.22,1.58L84,.5a1.71,1.71,0,0,1,2,.79L94.59,17A1.48,1.48,0,0,1,92,18.43L83.83,3.6l-3.57,1a1.83,1.83,0,0,1-1.11,0L75,3,70.84,4.58a1.8,1.8,0,0,1-1.1,0l-3.57-1L58,18.43A1.48,1.48,0,0,1,55.41,17L64.08,1.29A1.7,1.7,0,0,1,66,.5l4.13,1.19L74.39.11A1.78,1.78,0,0,1,75,0Zm5.2,1.83h0Zm-10.41,0h0Z"/><path class="cls-1" d="M126.21,20.47a1.72,1.72,0,0,1,1.58,1.07l1.64,4,3.87,2.29a1.77,1.77,0,0,1,.76,1L135.45,33,139,35.5a1.71,1.71,0,0,1,.61,2l-6.94,16.55a1.47,1.47,0,0,1-2.72-1.13l6.54-15.61-3-2.15a1.64,1.64,0,0,1-.65-.88l-1.37-4.21-3.82-2.27a1.76,1.76,0,0,1-.72-.83l-1.42-3.42-16.73,2.87a1.47,1.47,0,1,1-.51-2.89L126,20.5Zm5.58,9.85h0Zm3.34,2.47h0Zm1.71,3.6h0Z"/><path class="cls-1" d="M135,68.38a1.46,1.46,0,0,1,1,.37l13.45,11.92a1.7,1.7,0,0,1,.33,2.09l-2.08,3.75.61,4.44a1.7,1.7,0,0,1-.28,1.2l-2.47,3.73.24,4.28a1.71,1.71,0,0,1-1.21,1.73l-17.31,4.93a1.49,1.49,0,0,1-1.83-1,1.47,1.47,0,0,1,1-1.82l16.32-4.64-.2-3.7a1.64,1.64,0,0,1,.28-1.05l2.45-3.7-.6-4.39a1.79,1.79,0,0,1,.2-1.07l1.8-3.25L134,71a1.47,1.47,0,0,1-.13-2.08A1.5,1.5,0,0,1,135,68.38Zm12.47,14.5h0Zm-1.92,7.65h0Zm0,5h0Z"/><path class="cls-1" d="M116.38,117h.08a1.48,1.48,0,0,1,1.4,1.55l-1,17.92a1.69,1.69,0,0,1-1.43,1.55l-4.23.72L108.12,142a1.69,1.69,0,0,1-1.11.53l-4.48.4-3.21,2.86a1.7,1.7,0,0,1-2.11.14L82.55,135.53a1.47,1.47,0,1,1,1.72-2.39L98.09,143l2.77-2.46a1.75,1.75,0,0,1,1-.44l4.43-.4,3.07-3.2a1.7,1.7,0,0,1,1-.51l3.66-.62.91-16.9A1.47,1.47,0,0,1,116.38,117ZM115,135.16Zm-8.22,4.46ZM106,140Z"/><path class="cls-1" d="M33.62,117a1.47,1.47,0,0,1,1.47,1.39l.91,16.9,3.66.62a1.7,1.7,0,0,1,1,.51l3.07,3.2,4.43.4a1.75,1.75,0,0,1,1,.44L51.91,143l13.82-9.82a1.47,1.47,0,1,1,1.72,2.39L52.79,146a1.7,1.7,0,0,1-2.11-.14L47.47,143l-4.48-.4a1.69,1.69,0,0,1-1.11-.53l-3.11-3.24-4.23-.72a1.69,1.69,0,0,1-1.43-1.55l-1-17.92a1.48,1.48,0,0,1,1.4-1.55ZM35,135.16Zm8.22,4.46ZM44,140h0Zm7,3.57h0Zm1.57.05Z"/><path class="cls-1" d="M15,68.38a1.52,1.52,0,0,1,1.11.49A1.47,1.47,0,0,1,16,71L3.28,82.19l1.79,3.24a1.76,1.76,0,0,1,.21,1.07l-.6,4.4,2.45,3.69a1.82,1.82,0,0,1,.28,1.06l-.2,3.7L23.53,104a1.47,1.47,0,0,1,1,1.82,1.49,1.49,0,0,1-1.83,1L5.41,101.89a1.71,1.71,0,0,1-1.21-1.73l.24-4.28L2,92.14A1.72,1.72,0,0,1,1.69,91l.61-4.44L.22,82.76a1.7,1.7,0,0,1,.33-2.09L14,68.75A1.46,1.46,0,0,1,15,68.38ZM2.51,82.87h0Z"/><path class="cls-1" d="M23.78,20.47l.28,0,17.73,3.05a1.47,1.47,0,1,1-.5,2.89L24.56,23.57,23.14,27a1.71,1.71,0,0,1-.72.83L18.6,30.09,17.23,34.3a1.68,1.68,0,0,1-.65.88l-3,2.15,6.54,15.61a1.48,1.48,0,0,1-2.73,1.13L10.43,37.51a1.7,1.7,0,0,1,.61-2L14.55,33l1.39-4.27a1.77,1.77,0,0,1,.76-1l3.87-2.29,1.64-4A1.72,1.72,0,0,1,23.78,20.47Zm-.22,2.93h0Zm-3.15,2.47h0Zm-2.2,4.45h0ZM14.42,33.4h0Z"/></g></g></svg>