<svg xmlns="http://www.w3.org/2000/svg" viewBox="0 0 15 15"><defs><style>.cls-1{fill:#fff;}</style></defs><g id="Layer_2" data-name="Layer 2"><g id="Design"><path class="cls-1" d="M14.45,6.78a.55.55,0,0,1-.55-.54V1.1H8.76A.55.55,0,0,1,8.22.55.55.55,0,0,1,8.76,0h5.69A.55.55,0,0,1,15,.55V6.24A.55.55,0,0,1,14.45,6.78Z"/><path class="cls-1" d="M11.92,15H.55A.55.55,0,0,1,0,14.45V3.08a.55.55,0,0,1,.55-.55H5.6a.54.54,0,0,1,.55.55.55.55,0,0,1-.55.55H1.1V13.9H11.38V9.4a.55.55,0,1,1,1.09,0v5A.55.55,0,0,1,11.92,15Z"/><path class="cls-1" d="M6.87,8.68a.54.54,0,0,1-.39-.16.56.56,0,0,1,0-.78l7-6.95a.56.56,0,0,1,.78,0,.56.56,0,0,1,0,.78l-7,7A.54.54,0,0,1,6.87,8.68Z"/></g></g></svg>