<svg xmlns="http://www.w3.org/2000/svg" viewBox="0 0 19.67 20"><defs><style>.cls-1{fill:#0d0d0d;}</style></defs><g id="Layer_2" data-name="Layer 2"><g id="menu"><path class="cls-1" d="M14,0H5.65A5.65,5.65,0,0,0,0,5.65v8.7A5.65,5.65,0,0,0,5.65,20H14a5.65,5.65,0,0,0,5.66-5.65V5.65A5.65,5.65,0,0,0,14,0ZM2,5.65A3.64,3.64,0,0,1,5.65,2H14a3.65,3.65,0,0,1,3.65,3.64v8.7A3.65,3.65,0,0,1,14,18H5.65A3.64,3.64,0,0,1,2,14.35Z"/><path class="cls-1" d="M9.83,15.15A5.15,5.15,0,1,0,4.68,10,5.16,5.16,0,0,0,9.83,15.15Zm0-8.7A3.55,3.55,0,1,1,6.29,10,3.56,3.56,0,0,1,9.83,6.45Z"/><circle class="cls-1" cx="15.13" cy="4.7" r="1.15"/></g></g></svg>