<svg xmlns="http://www.w3.org/2000/svg" viewBox="0 0 25 25"><defs><style>.cls-1{fill:#868686;fill-rule:evenodd;}</style></defs><g id="Layer_2" data-name="Layer 2"><g id="menu"><path class="cls-1" d="M42.17,37.75a2,2,0,0,0,2.08-2.08c0-2.09-2.08-8.34-12.5-8.34s-12.5,6.25-12.5,8.34a2,2,0,0,0,2.08,2.08Zm-20.83-2Zm0-.11H42.17a5.6,5.6,0,0,0-1.74-3.47c-1.36-1.36-3.91-2.77-8.68-2.77s-7.32,1.41-8.68,2.77a5.6,5.6,0,0,0-1.74,3.47Zm20.78.11ZM31.75,23.17A4.17,4.17,0,1,0,27.58,19,4.17,4.17,0,0,0,31.75,23.17ZM38,19a6.25,6.25,0,1,1-6.25-6.25A6.25,6.25,0,0,1,38,19Z" transform="translate(-19.25 -12.75)"/></g></g></svg>