<svg xmlns="http://www.w3.org/2000/svg" viewBox="0 0 101.09 77.05"><defs><style>.cls-1{fill:#4d4d4d;}</style></defs><title>Asset 1</title><g id="Layer_2" data-name="Layer 2"><g id="Layer_1-2" data-name="Layer 1"><path class="cls-1" d="M17.31,30.46H3.74A3.73,3.73,0,0,0,0,34.2V73.31a3.74,3.74,0,0,0,3.74,3.74H17.31a3.75,3.75,0,0,0,3.74-3.74V34.2a3.74,3.74,0,0,0-3.74-3.74M12.64,71.11a3.46,3.46,0,1,1,3.46-3.46,3.46,3.46,0,0,1-3.46,3.46"/><path class="cls-1" d="M94.79,24.23H57.67a6.3,6.3,0,0,0-1.39.16h-.54a20.89,20.89,0,0,0,2.38-11.62C57.7,8.34,54,.51,48.21.05c-4.44-.36-5.3,1.3-5.3,5.76,0,0,.05,4.31.05,7.07,0,5-1.65,7.47-7.47,11.65-7.68,5.5-9,8.35-9,8.35V62.54c0,5.94,4.07,10.68,11.65,10.68H65.8c3.82,0,9-1.84,9-6.9a6.93,6.93,0,0,0-2-4.87,6.86,6.86,0,0,0,3.35-12.14,6.88,6.88,0,0,0,.37-12.48H94.79a6.3,6.3,0,0,0,0-12.6"/></g></g></svg>