<svg xmlns="http://www.w3.org/2000/svg" viewBox="0 0 16.88 16.88"><defs><style>.cls-1{fill:none;}</style></defs><g id="Layer_2" data-name="Layer 2"><g id="menu"><rect class="cls-1" width="16.88" height="16.88"/><path d="M16.26,7.63A.61.61,0,0,1,15.64,7V1.23H9.86A.61.61,0,0,1,9.24.62.62.62,0,0,1,9.86,0h6.4a.62.62,0,0,1,.62.62V7A.61.61,0,0,1,16.26,7.63Z"/><path d="M13.41,16.88H.62A.62.62,0,0,1,0,16.26V3.46a.62.62,0,0,1,.62-.62H6.3a.62.62,0,0,1,0,1.24H1.23V15.64H12.8V10.57a.62.62,0,1,1,1.23,0v5.69A.62.62,0,0,1,13.41,16.88Z"/><path d="M7.73,9.77a.59.59,0,0,1-.44-.19.62.62,0,0,1,0-.87L15.11.89a.62.62,0,1,1,.87.87L8.16,9.58A.57.57,0,0,1,7.73,9.77Z"/></g></g></svg>