<svg xmlns="http://www.w3.org/2000/svg" viewBox="0 0 76 76"><defs><style>.cls-1{fill:#bf0413;}.cls-2{fill:#fff;}</style></defs><g id="Layer_2" data-name="Layer 2"><g id="designのコピー_2" data-name="designのコピー 2"><circle class="cls-1" cx="38" cy="38" r="38"/><path class="cls-2" d="M57.91,27.93a5.1,5.1,0,0,0-1-2.21,3.15,3.15,0,0,0-.35-.38,5,5,0,0,0-3.58-1.49H26.5a5,5,0,0,0-3.58,1.49,3.15,3.15,0,0,0-.35.38,5,5,0,0,0-1,2.21,4.75,4.75,0,0,0-.1,1V47.48a5.12,5.12,0,0,0,1.49,3.59l.35.32a5.08,5.08,0,0,0,3.23,1.16H52.93a5,5,0,0,0,3.23-1.17,3.52,3.52,0,0,0,.35-.31,5,5,0,0,0,1.07-1.58h0a5,5,0,0,0,.42-2V28.92A5.52,5.52,0,0,0,57.91,27.93Zm-33.16-.76a2.47,2.47,0,0,1,1.75-.73H52.93a2.45,2.45,0,0,1,1.75.73,2.75,2.75,0,0,1,.22.26L41.05,39.5a2,2,0,0,1-1.33.5,2,2,0,0,1-1.34-.5L24.54,27.42A2.32,2.32,0,0,1,24.75,27.17ZM24,47.48V30.11l10,8.74L24,47.59ZM52.93,50H26.5a2.4,2.4,0,0,1-1.22-.33l10.57-9.21,1,.86a4.39,4.39,0,0,0,5.77,0l1-.86,10.56,9.21A2.37,2.37,0,0,1,52.93,50Zm2.47-2.48v.11l-10-8.73,10-8.75Z"/></g></g></svg>