<svg xmlns="http://www.w3.org/2000/svg" viewBox="0 0 25 22.31"><defs><style>.cls-1{fill:#fff;}</style></defs><g id="Layer_2" data-name="Layer 2"><g id="menu"><path class="cls-1" d="M27.25,32.74a1.87,1.87,0,1,0,1.86,1.87A1.87,1.87,0,0,0,27.25,32.74Z" transform="translate(-18.88 -14.16)"/><path class="cls-1" d="M40.25,32.74a1.87,1.87,0,1,0,1.87,1.87A1.87,1.87,0,0,0,40.25,32.74Z" transform="translate(-18.88 -14.16)"/><path class="cls-1" d="M41.18,31.83H26.32a.94.94,0,0,1-.93-.77L22.74,16H19.81a.94.94,0,0,1,0-1.88h3.72a.94.94,0,0,1,.92.78L27.1,30H41.18a.94.94,0,1,1,0,1.87Z" transform="translate(-18.88 -14.16)"/><path class="cls-1" d="M40.8,28.12H26.32a.94.94,0,0,1,0-1.88H40.41l1.49-7.42H24.46a.94.94,0,1,1,0-1.87h18a1.33,1.33,0,0,1,.28,0,1.35,1.35,0,0,1,.89.6,1.39,1.39,0,0,1,.21,1.05L42.17,27A1.4,1.4,0,0,1,40.8,28.12Zm0-1.88Z" transform="translate(-18.88 -14.16)"/></g></g></svg>