<svg xmlns="http://www.w3.org/2000/svg" viewBox="0 0 24.73 23.72"><defs><style>.cls-1{fill:#b3b3b3;}</style></defs><g id="Layer_2" data-name="Layer 2"><g id="design"><path class="cls-1" d="M24.73,9.59a2.24,2.24,0,0,0-.11-.67h0a2.2,2.2,0,0,0-2.1-1.53H16.34L14.46,1.53a2.2,2.2,0,0,0-4.19,0l1,.3-1-.3L8.38,7.39H2.2A2.2,2.2,0,0,0,.11,8.92h0A2,2,0,0,0,0,9.59a2.19,2.19,0,0,0,.92,1.79h0l5,3.6L4,20.83H4a2,2,0,0,0-.11.69,2.22,2.22,0,0,0,.9,1.78h0a2.18,2.18,0,0,0,1.29.42,2.16,2.16,0,0,0,1.3-.43h0l5-3.64,5,3.64h0a2.14,2.14,0,0,0,1.3.43,2.18,2.18,0,0,0,1.29-.42h0a2.2,2.2,0,0,0,.91-1.78,2.31,2.31,0,0,0-.11-.69L18.8,15l5-3.6h0A2.19,2.19,0,0,0,24.73,9.59Z"/></g></g></svg>