<svg xmlns="http://www.w3.org/2000/svg" viewBox="0 0 48 47.9"><defs><style>.cls-1{fill:#fff;}</style></defs><g id="Layer_2" data-name="Layer 2"><g id="Design"><path class="cls-1" d="M36.89,47.9A36.93,36.93,0,0,1,0,11,11,11,0,0,1,11,0a9.47,9.47,0,0,1,1.84.17A8.59,8.59,0,0,1,14.59.6a2.37,2.37,0,0,1,1.55,1.8l3.29,14.37A2.41,2.41,0,0,1,18.8,19c-.31.34-.33.36-3.28,1.89A23.77,23.77,0,0,0,27.19,32.58c1.55-3,1.58-3,1.91-3.31a2.39,2.39,0,0,1,2.21-.62l14.37,3.28a2.4,2.4,0,0,1,1.72,1.56,10.37,10.37,0,0,1,.46,1.74A12.39,12.39,0,0,1,48,37.05,11,11,0,0,1,36.89,47.9ZM11,4.79A6.24,6.24,0,0,0,4.79,11a32.11,32.11,0,0,0,32.1,32.09,6.24,6.24,0,0,0,6.22-6.22V36.1L32,33.53l-.69,1.32c-1.08,2.08-1.87,3.59-3.88,2.78a28.38,28.38,0,0,1-17.2-17.27c-.86-1.87.76-2.73,2.82-3.81l1.32-.65L11.81,4.79Z"/></g></g></svg>