<svg xmlns="http://www.w3.org/2000/svg" viewBox="0 0 20 20"><defs><style>.cls-1{fill:none;}.cls-2{fill:#868686;}</style></defs><g id="Layer_2" data-name="Layer 2"><g id="menu"><rect class="cls-1" width="20" height="20"/><path class="cls-2" d="M6.7,16a1.49,1.49,0,1,0,1.49,1.49A1.49,1.49,0,0,0,6.7,16Z"/><path class="cls-2" d="M17.1,16a1.49,1.49,0,1,0,1.49,1.49A1.49,1.49,0,0,0,17.1,16Z"/><path class="cls-2" d="M17.84,15.27H6a.77.77,0,0,1-.74-.62l-2.12-12H.75a.75.75,0,0,1,0-1.5h3a.74.74,0,0,1,.74.62l2.12,12H17.84a.75.75,0,0,1,0,1.5Z"/><path class="cls-2" d="M17.54,12.29H6a.75.75,0,1,1,0-1.5H17.23l1.19-5.94h-14a.75.75,0,0,1,0-1.5H18.88l.22,0a1.11,1.11,0,0,1,.71.48A1.09,1.09,0,0,1,20,4.7l-1.34,6.69A1.12,1.12,0,0,1,17.54,12.29Zm0-1.5Z"/></g></g></svg>