<svg xmlns="http://www.w3.org/2000/svg" viewBox="0 0 23.06 30.08"><defs><style>.cls-1{fill:#0d0d0d;}</style></defs><g id="Layer_2" data-name="Layer 2"><g id="designのコピー_2" data-name="designのコピー 2"><path class="cls-1" d="M2.06,1.27C0,2.61-.41,6.8.37,10.22A30.76,30.76,0,0,0,4.45,19.8a32.11,32.11,0,0,0,7.09,7.64c2.8,2.1,6.79,3.44,8.85,2.1a10.45,10.45,0,0,0,2.67-2.86L22,25,18.9,20.26c-.23-.35-1.65,0-2.37.38a6.85,6.85,0,0,0-1.88,2c-.67.39-1.23,0-2.4-.53-1.43-.67-3.05-2.72-4.34-4.58S5.52,13.31,5.5,11.73c0-1.29-.13-2,.49-2.41a7,7,0,0,0,2.62-.88c.67-.5,1.54-1.67,1.32-2L6.87,1.72,5.76,0A10.42,10.42,0,0,0,2.06,1.27Z"/></g></g></svg>