<svg xmlns="http://www.w3.org/2000/svg" viewBox="0 0 30 30"><defs><style>.cls-1{fill:none;}.cls-2{fill:#868686;}</style></defs><g id="Layer_2" data-name="Layer 2"><g id="menu"><rect class="cls-1" width="30" height="30"/><path class="cls-2" d="M28.9,13.57a1.1,1.1,0,0,1-1.1-1.1V2.2H17.53a1.1,1.1,0,0,1,0-2.2H28.9A1.1,1.1,0,0,1,30,1.1V12.47A1.1,1.1,0,0,1,28.9,13.57Z"/><path class="cls-2" d="M23.85,30H1.1A1.1,1.1,0,0,1,0,28.9V6.15A1.09,1.09,0,0,1,1.1,5.06H11.21a1.1,1.1,0,1,1,0,2.19h-9V27.8H22.75v-9a1.1,1.1,0,0,1,2.2,0V28.9A1.1,1.1,0,0,1,23.85,30Z"/><path class="cls-2" d="M13.74,17.36A1.13,1.13,0,0,1,13,17a1.09,1.09,0,0,1,0-1.55l13.9-13.9a1.1,1.1,0,0,1,1.56,1.55L14.51,17A1.09,1.09,0,0,1,13.74,17.36Z"/></g></g></svg>