<svg xmlns="http://www.w3.org/2000/svg" viewBox="0 0 76 76"><defs><style>.cls-1{fill:#bf0413;}.cls-2{fill:#fff;}</style></defs><g id="Layer_2" data-name="Layer 2"><g id="designのコピー_2" data-name="designのコピー 2"><circle class="cls-1" cx="38" cy="38" r="38"/><path class="cls-2" d="M55.44,25.6l-5.26-5.26a3.6,3.6,0,0,0-5.1,0l-3.41,3.41L25,40.41a6.77,6.77,0,0,0-1.55,2.45l-3.37,9.39a2.69,2.69,0,0,0,3.44,3.45l9.4-3.38a6.6,6.6,0,0,0,2.44-1.55L51.14,35h0l.89-.89,3.41-3.41h0A3.61,3.61,0,0,0,55.44,25.6ZM26.8,42.2,43.33,25.66l3,2.95L29.49,45.4l-2.93-2.94A2,2,0,0,1,26.8,42.2Zm5.27,7.74-6,2.16-2.4-2.4,2.15-6s0-.09.05-.13l6.31,6.31ZM33.59,49l-.27.24-2.94-2.94L47.17,29.5l2.95,3ZM53.66,28.91l-2.52,2.52-.13.13-6.79-6.79,2.65-2.65a1.08,1.08,0,0,1,1.53,0l5.26,5.25a1.1,1.1,0,0,1,0,1.54Z"/></g></g></svg>