<svg xmlns="http://www.w3.org/2000/svg" viewBox="0 0 76 76"><defs><style>.cls-1{fill:#bf0413;}.cls-2{fill:#fff;}</style></defs><g id="Layer_2" data-name="Layer 2"><g id="designのコピー_2" data-name="designのコピー 2"><circle class="cls-1" cx="38" cy="38" r="38"/><path class="cls-2" d="M58,28.06a5,5,0,0,0-1-2.22,4.25,4.25,0,0,0-.35-.39A5.06,5.06,0,0,0,53,23.94l-26.43-.17A5.11,5.11,0,0,0,23,25.24a4.26,4.26,0,0,0-.35.38,5,5,0,0,0-1.06,2.21,5.36,5.36,0,0,0-.1,1l-.12,18.55a5.07,5.07,0,0,0,.41,2,5,5,0,0,0,1,1.58l.35.32a5.08,5.08,0,0,0,3.23,1.19l26.42.17a5.07,5.07,0,0,0,3.25-1.15,3.49,3.49,0,0,0,.35-.32,5,5,0,0,0,1.08-1.56h0a5.12,5.12,0,0,0,.43-2l.12-18.56A5.44,5.44,0,0,0,58,28.06Zm-33.15-1a2.49,2.49,0,0,1,1.76-.72L53,26.54a2.42,2.42,0,0,1,1.75.74,2.75,2.75,0,0,1,.22.26L41,39.52a2,2,0,0,1-2.67,0L24.6,27.34A2.62,2.62,0,0,1,24.82,27.09ZM24,47.39,24.08,30l10,8.81L24,47.5A.41.41,0,0,1,24,47.39Zm28.88,2.66-26.42-.17a2.43,2.43,0,0,1-1.23-.33l10.63-9.14,1,.86a4.43,4.43,0,0,0,2.88,1.1,4.38,4.38,0,0,0,2.89-1.06l1-.85,10.51,9.27A2.42,2.42,0,0,1,52.85,50.05Zm2.49-2.46v.11l-10-8.79,10.08-8.68Z"/></g></g></svg>